<?xml version="1.0" standalone="no"?>
<!DOCTYPE svg PUBLIC "-//W3C//DTD SVG 1.1//EN" "http://www.w3.org/Graphics/SVG/1.1/DTD/svg11.dtd" >
<svg xmlns="http://www.w3.org/2000/svg" xmlns:xlink="http://www.w3.org/1999/xlink" version="1.1">
<metadata></metadata>
<defs>
<font id="standardbold" horiz-adv-x="1673" >
<font-face units-per-em="2048" ascent="1573" descent="-475" />
<missing-glyph horiz-adv-x="522" />
<glyph horiz-adv-x="0" />
<glyph horiz-adv-x="682" />
<glyph unicode=" "  horiz-adv-x="522" />
<glyph unicode="&#x09;" horiz-adv-x="522" />
<glyph unicode="&#xa0;" horiz-adv-x="522" />
<glyph unicode="!" horiz-adv-x="608" d="M135 0v338h338v-338h-338zM145 1542h318l-57 -1038h-203z" />
<glyph unicode="&#x22;" horiz-adv-x="931" d="M104 1542h308l-56 -608h-196zM520 1542h307l-55 -608h-197z" />
<glyph unicode="#" horiz-adv-x="1378" d="M92 463l25 196h233l25 213h-234l25 197h233l58 473h196l-57 -473h260l57 473h197l-57 -473h233l-24 -197h-234l-24 -213h233l-25 -196h-233l-57 -463h-197l57 463h-258l-57 -463h-199l58 463h-234zM547 659h260l24 213h-260z" />
<glyph unicode="$" horiz-adv-x="1376" d="M92 530h275q12 -151 69.5 -223.5t188.5 -87.5v443q-47 10 -76.5 16.5t-74 19t-73.5 24t-66 30.5t-61 39.5t-49.5 49.5t-39.5 62.5t-23.5 77.5t-9.5 94q0 70 27.5 137t82 125.5t148.5 98.5t215 49v184h153v-186q110 -12 197 -54t136.5 -95.5t81.5 -117.5t42 -116t8 -94 h-268q0 108 -47.5 167t-149.5 74v-344q46 -10 80 -19t79 -23t77.5 -29t71 -37t65.5 -47t54 -59.5t43 -74.5t26 -91t10 -109q0 -203 -139.5 -313.5t-366.5 -123.5v-247h-153v250q-94 8 -172 34.5t-131.5 62t-95 83t-65.5 93.5t-40 99t-22 94.5t-7 83.5zM434 1098 q0 -63 48.5 -98.5t142.5 -61.5v313q-191 -19 -191 -153zM778 219q114 10 170 58t56 124q0 93 -58.5 144t-167.5 82v-408z" />
<glyph unicode="%" horiz-adv-x="1818" d="M92 1141q0 79 23.5 154t66 135.5t109 97.5t145.5 37q80 0 146.5 -37t109 -97.5t65.5 -135.5t23 -154t-23 -154.5t-65.5 -137t-109 -99t-146.5 -37.5q-79 0 -145.5 37.5t-109 99t-66 137t-23.5 154.5zM276 1137q0 -277 162 -277t162 277q0 278 -162 278t-162 -278zM469 0 l713 1542h161l-712 -1542h-162zM1038 403q0 79 23.5 154t66 135.5t109 97.5t145.5 37q80 0 146.5 -37t109 -97.5t65.5 -135.5t23 -154t-23 -154.5t-65.5 -137t-109 -99t-146.5 -37.5q-79 0 -145.5 37.5t-109 99t-66 137t-23.5 154.5zM1223 399q0 -276 161 -276 q162 0 162 276q0 279 -162 279q-161 0 -161 -279z" />
<glyph unicode="&#x26;" horiz-adv-x="1439" d="M92 430q0 66 18 126.5t47 106.5t72.5 90t86 75.5t96.5 64.5l-64 86q-106 126 -106 225q0 114 58.5 198t150 124.5t200.5 40.5q79 0 143.5 -23.5t106.5 -60.5t70.5 -85t40.5 -95t12 -93q0 -68 -22.5 -125.5t-66.5 -103.5t-89 -79t-111 -71l248 -325q61 141 64 293h245 q-2 -90 -43.5 -228t-118.5 -262l236 -309h-285l-96 129q-167 -154 -387 -154q-69 0 -137.5 15t-136 50.5t-118.5 86.5t-82.5 129.5t-31.5 173.5zM350 420q0 -81 66.5 -143t183.5 -62q139 0 248 98l-305 406q-93 -63 -143 -132.5t-50 -166.5zM494 1198q0 -21 11 -46.5 t22.5 -42.5t38 -52.5t38.5 -52.5q92 53 139.5 99t47.5 101q0 51 -37.5 90t-104.5 39q-68 0 -111.5 -37.5t-43.5 -97.5z" />
<glyph unicode="'" horiz-adv-x="516" d="M104 1542h308l-56 -608h-196z" />
<glyph unicode="(" horiz-adv-x="679" d="M104 535q0 145 31 300t80.5 286.5t104.5 238t110 182.5h225q-280 -532 -280 -1007q0 -478 280 -1010h-225q-55 75 -110 182.5t-104.5 239.5t-80.5 287.5t-31 300.5z" />
<glyph unicode=")" horiz-adv-x="679" d="M25 -475q280 532 280 1010q0 475 -280 1007h225q76 -104 146.5 -253.5t124.5 -356.5t54 -397q0 -145 -30.5 -300.5t-80 -287.5t-104.5 -239.5t-110 -182.5h-225z" />
<glyph unicode="*" horiz-adv-x="1323" d="M104 1036l97 236l356 -180l-22 450h253l-22 -450l356 180l97 -236l-392 -118l287 -353l-203 -145l-249 399l-250 -399l-203 145l287 353z" />
<glyph unicode="+" horiz-adv-x="1306" d="M104 674v196h451v451h197v-451h450v-196h-450v-451h-197v451h-451z" />
<glyph unicode="," horiz-adv-x="608" d="M135 0v338h338v-258q0 -106 -25 -186t-61.5 -124t-85.5 -71t-88 -35t-78 -8v180q160 0 160 164h-160z" />
<glyph unicode="-" horiz-adv-x="761" d="M92 504v258h578v-258h-578z" />
<glyph unicode="." horiz-adv-x="583" d="M123 0v338h338v-338h-338z" />
<glyph unicode="/" horiz-adv-x="1159" d="M-31 -475l916 2017h262l-916 -2017h-262z" />
<glyph unicode="0" horiz-adv-x="1474" d="M104 774q0 117 26 231t79 215.5t127.5 179t178 122.5t222.5 45q120 0 223.5 -45.5t177.5 -122.5t127 -178.5t79 -215.5t26 -231t-26 -231.5t-79 -217t-127 -180.5t-177.5 -124t-223.5 -46q-119 0 -222.5 46t-177.5 124t-127.5 180.5t-79.5 217t-26 231.5zM399 774 q0 -267 89.5 -413t248.5 -146t248.5 146t89.5 413q0 265 -89 406t-249 141t-249 -141t-89 -406z" />
<glyph unicode="1" horiz-adv-x="780" d="M37 1085v252q308 0 338 205h233v-1542h-282v1114q-47 -17 -127.5 -25t-161.5 -4z" />
<glyph unicode="2" horiz-adv-x="1337" d="M135 983q-4 80 9.5 158t50.5 156t95 137t152 96t213 37q110 0 199.5 -31t148 -81.5t98 -118t56.5 -138.5t17 -145q0 -75 -12.5 -145t-33 -127t-53.5 -111t-66 -95.5t-79.5 -83.5t-85.5 -72t-92.5 -63.5t-91.5 -54.5t-91 -49h633v-252h-1038v258q374 174 550.5 360.5 t176.5 440.5q0 34 -6 67.5t-22.5 70.5t-42.5 65t-70.5 46.5t-102.5 18.5q-125 0 -187.5 -92t-53.5 -252h-271z" />
<glyph unicode="3" horiz-adv-x="1406" d="M104 535h275q7 -177 89.5 -248.5t258.5 -71.5q136 0 219.5 62t83.5 169q0 127 -82 180.5t-266 53.5h-240v221h240q153 5 225 56.5t72 170.5q0 86 -67.5 142.5t-188.5 56.5q-277 0 -285 -258h-270q2 77 23 148t65 135.5t108 111.5t157.5 75t207.5 28q119 0 217.5 -33.5 t162.5 -90.5t99 -132t35 -158q0 -153 -67 -227.5t-220 -112.5q177 -26 262 -128.5t85 -268.5q0 -203 -161.5 -322t-424.5 -119q-104 0 -191 19t-148 51t-109 77.5t-78 94t-49.5 106t-27.5 108t-10 104.5z" />
<glyph unicode="4" horiz-adv-x="1355" d="M74 387v272l686 883h293v-909h211v-246h-211v-387h-283v387h-696zM309 633h461v590z" />
<glyph unicode="5" horiz-adv-x="1431" d="M123 467h280q9 -76 39.5 -130t75.5 -82t91.5 -40t99.5 -12q146 0 225.5 88t79.5 241q0 154 -79 243t-224 89q-126 0 -212.5 -55.5t-121.5 -138.5h-197v872h994v-252h-797v-393q42 79 142.5 137t258.5 58q163 0 285 -71t184 -192.5t62 -275.5q0 -88 -22 -170.5t-69.5 -157 t-115.5 -130t-167 -88t-218 -32.5q-125 0 -225.5 29t-165.5 76.5t-110 113t-66 132.5t-27 141z" />
<glyph unicode="6" horiz-adv-x="1390" d="M104 774q0 120 21 231.5t68.5 214.5t117 179.5t174 122t232.5 45.5q110 0 200 -25.5t150.5 -67.5t103 -100t63.5 -120t26 -130h-287q-24 191 -240 191q-157 0 -258.5 -126.5t-101.5 -371.5q39 97 139 159t244 62q232 0 381 -143.5t149 -376.5q0 -105 -41 -203 t-112.5 -173.5t-178.5 -121t-231 -45.5q-115 0 -209.5 30.5t-161 86.5t-115.5 129.5t-77.5 165t-42 187t-13.5 200.5zM424 520q0 -123 80.5 -214t210.5 -91q127 0 201.5 90t74.5 215q0 136 -67 219.5t-209 83.5q-127 0 -209 -87.5t-82 -215.5z" />
<glyph unicode="7" horiz-adv-x="1210" d="M92 1100v442h1026v-233q-24 -29 -70 -84q-138 -168 -194 -256q-122 -193 -166 -457q-35 -208 -35 -512h-297q0 145 16.5 279t40 235t63.5 200.5t73.5 164t84 138t80 109.5t77 91.5t61.5 72.5h-539v-190h-221z" />
<glyph unicode="8" horiz-adv-x="1437" d="M104 432q0 67 17 124t44.5 98t69.5 77.5t84 61t97 49.5q-114 48 -182 128t-68 183q0 59 18 116t60 111.5t104.5 95.5t158 66t212.5 25t212 -25t157 -66t104.5 -95.5t61 -111.5t18.5 -116q0 -103 -68 -183t-184 -128q70 -32 120.5 -65t97 -81t71 -114.5t24.5 -149.5 q0 -121 -81.5 -226.5t-223.5 -168t-309 -62.5q-126 0 -240.5 37t-196.5 99t-130 146t-48 175zM362 465q0 -112 98 -175t259 -63t258.5 63t97.5 175q0 74 -49.5 128t-128.5 79.5t-178 25.5t-178.5 -25.5t-129 -79.5t-49.5 -128zM430 1126q0 -90 78.5 -142t210.5 -52t210.5 52 t78.5 142q0 85 -74.5 137t-214.5 52t-214.5 -52t-74.5 -137z" />
<glyph unicode="9" horiz-adv-x="1384" d="M104 1024q0 105 40 202.5t111 173.5t177 121.5t230 45.5q140 0 249 -45t177.5 -119t112.5 -179t61.5 -216t17.5 -240q0 -121 -19.5 -231.5t-65.5 -214.5t-114.5 -180t-173 -121.5t-233.5 -45.5q-110 0 -200 24.5t-150.5 66t-103 98.5t-63.5 118.5t-26 129.5h281 q6 -53 28.5 -90.5t59 -57.5t79.5 -28.5t99 -8.5q334 0 334 498q-39 -97 -139 -159t-244 -62q-232 0 -378.5 143.5t-146.5 376.5zM393 1022q0 -64 15 -116.5t47 -95.5t90 -67t137 -24q132 0 205.5 87t73.5 216q0 58 -17 111t-49.5 97t-87.5 70.5t-125 26.5q-94 0 -161.5 -46 t-97.5 -113.5t-30 -145.5z" />
<glyph unicode=":" horiz-adv-x="583" d="M123 0v338h338v-338h-338zM123 731v338h338v-338h-338z" />
<glyph unicode=";" horiz-adv-x="583" d="M123 0v338h338v-258q0 -106 -25 -186t-61.5 -124t-85.5 -71t-88 -35t-78 -8v180q160 0 160 164h-160zM123 731v338h338v-338h-338z" />
<glyph unicode="&#x3c;" horiz-adv-x="1046" d="M92 510v248l862 336v-228l-671 -231l671 -234v-227z" />
<glyph unicode="=" horiz-adv-x="1038" d="M92 406v190h854v-190h-854zM92 762v190h854v-190h-854z" />
<glyph unicode="&#x3e;" horiz-adv-x="1046" d="M92 174v227l672 234l-672 231v228l862 -336v-248z" />
<glyph unicode="?" horiz-adv-x="1302" d="M111 1073q0 29 7 66t24.5 85.5t44.5 95t71.5 92t100 79.5t135 55t172.5 21q115 0 208 -28t151 -71t97 -100t54.5 -110.5t15.5 -106.5q0 -83 -24.5 -149.5t-63 -110t-85.5 -79.5t-94 -66t-85.5 -62t-63 -76t-24.5 -98v-6h-295v18q0 81 24.5 144t63 102t85.5 70.5t94 58.5 t85.5 56.5t63 73t24.5 99.5q0 90 -66 139.5t-176 49.5q-118 0 -188 -71.5t-68 -170.5h-288zM436 0v338h338v-338h-338z" />
<glyph unicode="@" horiz-adv-x="1769" d="M92 774q-1 67 13 140.5t45 151t76 149.5t111 136.5t145 112t183 75.5t220 28q135 0 252.5 -37t202 -99.5t150.5 -142.5t106 -169.5t60.5 -176.5t20.5 -168q0 -82 -20.5 -152.5t-62 -126.5t-110.5 -88t-159 -32q-103 0 -183.5 47t-90.5 117q-31 -80 -110 -122t-175 -42 q-141 0 -223 114t-56 281q27 172 133.5 283.5t253.5 111.5q85 0 131.5 -30.5t75.5 -85.5l15 98h172l-80 -453q-7 -44 3.5 -79t33 -54.5t48 -29t50.5 -9.5q37 0 65.5 10.5t55 36t41 77.5t14.5 128q0 178 -75.5 322t-216.5 227.5t-322 83.5q-180 0 -321.5 -85t-217.5 -228.5 t-76 -319.5t76 -321t217.5 -231.5t321.5 -86.5q244 0 411 154l103 -127q-211 -187 -514 -187q-135 0 -252 37.5t-201.5 101.5t-150.5 145t-106 171.5t-61 177.5t-22 166zM653 770q-19 -123 24.5 -184.5t131.5 -61.5q83 0 149 60.5t86 185.5q20 126 -25 186t-132 60 q-84 0 -149.5 -62t-84.5 -184z" />
<glyph unicode="A" horiz-adv-x="1499" d="M25 0l557 1542h340l553 -1542h-316l-133 393h-559l-133 -393h-309zM553 645h387l-192 569z" />
<glyph unicode="B" horiz-adv-x="1587" d="M172 0v1542h711q251 0 400 -103.5t149 -305.5q0 -104 -74.5 -193.5t-190.5 -116.5q153 -18 240.5 -125.5t87.5 -251.5q0 -107 -30.5 -186.5t-99 -139.5t-187 -90t-287.5 -30h-719zM467 252h453q151 0 215.5 51.5t64.5 153.5q0 101 -67 153t-218 52h-448v-410zM467 913 h420q133 0 191.5 48.5t58.5 140.5t-58.5 140t-191.5 48h-420v-377z" />
<glyph unicode="C" horiz-adv-x="1591" d="M92 774q0 111 25 219.5t82.5 213t140 184t207.5 128t276 48.5q159 0 283.5 -43t203 -118.5t122.5 -169t55 -204.5h-289q-9 75 -43 131.5t-86 88t-110.5 46.5t-124.5 15q-96 0 -173.5 -28.5t-139 -90t-95 -168t-33.5 -252.5q0 -147 31 -253.5t90 -169.5t136 -92.5 t177 -31.5q67 0 119 8.5t101 31t82 60t54.5 98t26.5 142.5h289q-4 -96 -28.5 -180.5t-76.5 -161t-128.5 -131.5t-191.5 -87t-257 -32q-146 0 -268.5 49t-205 129.5t-140.5 185.5t-84.5 215t-26.5 220z" />
<glyph unicode="D" horiz-adv-x="1613" d="M172 0v1542h549q131 0 241.5 -24t191.5 -65t145 -99.5t105.5 -125t68.5 -144t38 -153.5t11 -157q0 -116 -22 -220.5t-79 -208t-145 -178t-230.5 -121t-324.5 -46.5h-549zM467 252h291q67 0 122.5 9t110.5 30t96.5 59.5t73.5 95t49 139.5t17 189q0 126 -25.5 219.5 t-66.5 149.5t-103.5 89.5t-127 45.5t-146.5 12h-291v-1038z" />
<glyph unicode="E" horiz-adv-x="1456" d="M172 0v1542h1174v-252h-879v-370h799v-252h-799v-416h879v-252h-1174z" />
<glyph unicode="F" horiz-adv-x="1388" d="M172 0v1542h1137v-252h-842v-420h750v-252h-750v-618h-295z" />
<glyph unicode="G" horiz-adv-x="1687" d="M92 774q0 125 30 241.5t92 218t149.5 177t209.5 119t265 43.5q164 0 293 -44.5t210.5 -123.5t128.5 -178.5t62 -218.5h-295q-21 311 -385 311q-218 0 -341.5 -136t-123.5 -409q0 -280 125 -413.5t352 -133.5q116 0 204 35t144.5 115.5t63.5 200.5h-377v245h653v-823h-270 v158q-152 -183 -448 -183q-145 0 -268 46.5t-209 125t-146.5 181.5t-89.5 216.5t-29 229.5z" />
<glyph unicode="H" horiz-adv-x="1683" d="M172 0v1542h295v-643h750v643h294v-1542h-294v647h-750v-647h-295z" />
<glyph unicode="I" horiz-adv-x="638" d="M172 0v1542h295v-1542h-295z" />
<glyph unicode="J" horiz-adv-x="1222" d="M92 575h277q0 -72 3.5 -119.5t15 -96t33 -76t59 -45t91.5 -17.5q61 0 101.5 23t62.5 71t30.5 109.5t8.5 150.5v967h295v-997q0 -100 -13 -180.5t-47.5 -155t-90 -124.5t-145.5 -80t-208 -30q-104 0 -183 27t-133 76t-88.5 124t-50.5 166t-18 207z" />
<glyph unicode="K" horiz-adv-x="1591" d="M172 0v1542h295v-682l610 682h367l-606 -661l729 -881h-381l-539 672l-180 -195v-477h-295z" />
<glyph unicode="L" horiz-adv-x="1308" d="M172 0v1542h295v-1290h750v-252h-1045z" />
<glyph unicode="M" horiz-adv-x="1933" d="M172 0v1542h446l349 -1177l348 1177h446v-1542h-295v1260l-356 -1260h-287l-356 1260v-1260h-295z" />
<glyph unicode="N" horiz-adv-x="1718" d="M172 0v1542h320l759 -1130v1130h295v-1542h-317l-762 1133v-1133h-295z" />
<glyph unicode="O" d="M92 774q0 112 27 222t87 213.5t145 182.5t210.5 127t274.5 48q150 0 276 -48t211 -127t144.5 -182.5t86.5 -213.5t27 -222t-26.5 -222.5t-86 -215t-144 -184.5t-211 -128.5t-277.5 -48.5q-149 0 -274.5 48.5t-210.5 128.5t-145 184.5t-87 215t-27 222.5zM387 774 q0 -143 34 -250.5t96 -171t142 -94.5t177 -31t177 31t142 94.5t96.5 171t34.5 250.5q0 144 -34.5 250.5t-96.5 169t-141.5 92t-177.5 29.5t-177 -29.5t-141.5 -92t-96.5 -169t-34 -250.5z" />
<glyph unicode="P" horiz-adv-x="1411" d="M172 0v1542h555q151 0 264 -25.5t196.5 -81t126 -150.5t42.5 -228q0 -260 -161 -376t-468 -116h-260v-565h-295zM467 817h309q157 0 221 57t64 181q0 126 -63.5 180.5t-221.5 54.5h-309v-473z" />
<glyph unicode="Q" d="M92 774q0 112 27 222t87 213.5t145 182.5t210.5 127t274.5 48q150 0 276 -48t211 -127t144.5 -182.5t86.5 -213.5t27 -222q0 -243 -117 -446l213 -154l-151 -197l-217 162q-192 -164 -473 -164q-149 0 -274.5 48.5t-210.5 128.5t-145 184.5t-87 215t-27 222.5zM387 774 q0 -143 34 -250.5t96 -171t142 -94.5t177 -31t177 31t142 94.5t96.5 171t34.5 250.5q0 144 -34.5 250.5t-96.5 169t-141.5 92t-177.5 29.5t-177 -29.5t-141.5 -92t-96.5 -169t-34 -250.5z" />
<glyph unicode="R" horiz-adv-x="1480" d="M172 0v1542h616q152 0 262 -23.5t192 -76.5t122.5 -144.5t40.5 -222.5q0 -201 -98.5 -309t-292.5 -141l424 -625h-348l-367 608h-256v-608h-295zM467 860h360q159 0 221 52t62 163t-62 163t-221 52h-360v-430z" />
<glyph unicode="S" horiz-adv-x="1449" d="M98 559h289q14 -180 91.5 -256t266.5 -76q158 0 235 52t77 145q0 60 -25 105t-68 71t-100.5 47t-122 32.5t-133 28.5t-133 34t-122 49.5t-100.5 75t-68 110.5t-25 156q0 79 33 153.5t98.5 138.5t178 103t257.5 39q138 0 247 -40t171 -98t101.5 -131t51.5 -132 q11 -51 11 -94v-13h-283q0 136 -71 199t-228 63q-270 0 -270 -164q0 -49 30.5 -83.5t82.5 -55t119 -36.5t141.5 -32.5t148.5 -38.5t141 -59.5t119 -89.5t82.5 -135.5t30.5 -190.5q0 -93 -30 -169.5t-83.5 -130t-128 -90t-163 -54t-189.5 -17.5q-117 0 -214.5 22.5 t-163.5 58.5t-117.5 87t-81 103t-49 111.5t-26.5 106.5t-8 95z" />
<glyph unicode="T" horiz-adv-x="1372" d="M37 1290v252h1298v-252h-501v-1290h-295v1290h-502z" />
<glyph unicode="U" horiz-adv-x="1597" d="M154 545v997h295v-967q0 -348 350 -348t350 348v967h295v-997q0 -119 -42 -221.5t-121 -180.5t-203 -123t-279 -45t-279 45t-203 123t-121 180.5t-42 221.5z" />
<glyph unicode="V" horiz-adv-x="1486" d="M37 1542h321l400 -1171l377 1171h315l-545 -1542h-303z" />
<glyph unicode="W" horiz-adv-x="2279" d="M37 1542h321l314 -1130l323 1130h287l324 -1130l315 1130h322l-494 -1542h-303l-307 1159l-308 -1159h-303z" />
<glyph unicode="X" horiz-adv-x="1599" d="M37 0l592 817l-525 725h355l342 -516l340 516h354l-524 -725l592 -817h-355l-407 612l-410 -612h-354z" />
<glyph unicode="Y" horiz-adv-x="1501" d="M18 1542h355l379 -670l376 670h355l-592 -930v-612h-295v616z" />
<glyph unicode="Z" horiz-adv-x="1386" d="M117 0v240l809 1050h-785v252h1110v-227l-823 -1063h842v-252h-1153z" />
<glyph unicode="[" horiz-adv-x="700" d="M147 -475v2017h517v-196h-246v-1625h246v-196h-517z" />
<glyph unicode="\" horiz-adv-x="1159" d="M12 1542h262l916 -2017h-262z" />
<glyph unicode="]" horiz-adv-x="700" d="M37 -279h246v1625h-246v196h516v-2017h-516v196z" />
<glyph unicode="^" horiz-adv-x="1165" d="M104 803l355 739h248l354 -739h-227l-252 549l-250 -549h-228z" />
<glyph unicode="_" horiz-adv-x="823" d="M0 -315h823v-160h-823v160z" />
<glyph unicode="`" horiz-adv-x="638" d="M104 1599h269l162 -344h-185z" />
<glyph unicode="a" horiz-adv-x="1134" d="M74 287q0 53 14.5 97.5t38.5 77t60 58.5t72.5 43.5t84.5 30.5t87.5 20t88.5 12t80.5 6.5t71.5 3.5q18 1 26 1v108q0 75 -42 113.5t-113 38.5q-77 0 -119.5 -40.5t-42.5 -119.5h-277q0 46 12 91.5t43 94.5t78 86t124.5 61t175.5 24q89 0 166 -21.5t137.5 -63t95.5 -110 t35 -156.5v-432q0 -68 20 -89t74 -21l51 4v-215q-8 -15 -104 -15q-127 0 -194 52t-97 139q-18 -71 -100 -131t-213 -60q-157 0 -245.5 90.5t-88.5 221.5zM350 287q0 -52 36.5 -80.5t98.5 -28.5q85 0 149 79t64 210v12q-58 -2 -101.5 -6.5t-92.5 -17t-80.5 -32.5t-52.5 -54.5 t-21 -81.5z" />
<glyph unicode="b" horiz-adv-x="1302" d="M147 0v1573h283v-647q56 80 132 124t194 44q139 0 247.5 -73t167 -200t58.5 -286t-58.5 -286t-167 -200.5t-247.5 -73.5q-116 0 -201 49t-125 121v-145h-283zM418 535q0 -91 23.5 -161t63.5 -111.5t88.5 -62t102.5 -20.5q118 0 184 88t66 267t-66 266.5t-184 87.5 q-54 0 -102.5 -20.5t-88.5 -61.5t-63.5 -111t-23.5 -161z" />
<glyph unicode="c" horiz-adv-x="1187" d="M74 535q0 114 36 214.5t102.5 177.5t169.5 122t228 45q201 0 330.5 -108t171.5 -284h-278q-22 102 -74 148.5t-150 46.5q-129 0 -191.5 -87.5t-62.5 -274.5t62.5 -275t191.5 -88q107 0 162 55t70 174h278q-27 -186 -165.5 -306t-350.5 -120q-166 0 -288.5 78t-182 203.5 t-59.5 278.5z" />
<glyph unicode="d" horiz-adv-x="1304" d="M74 535q0 242 132.5 400.5t342.5 158.5q118 0 193.5 -44t131.5 -124v647h283v-1573h-283v145q-40 -72 -125 -121t-200 -49q-139 0 -248 73.5t-168 200.5t-59 286zM358 535q0 -179 66 -267t184 -88q54 0 102.5 20.5t89 62t64 111.5t23.5 161t-23.5 161t-64 111t-89 61.5 t-102.5 20.5q-118 0 -184 -87.5t-66 -266.5z" />
<glyph unicode="e" horiz-adv-x="1196" d="M74 535q0 114 34 214.5t98.5 177.5t165.5 122t226 45q126 0 226.5 -44.5t165 -123.5t98.5 -185t34 -231h-772q4 -165 72 -247.5t182 -82.5q93 0 148.5 41.5t78.5 128.5h273q-89 -375 -518 -375q-127 0 -227 45t-161 122.5t-92.5 177.5t-31.5 215zM365 688h473 q-21 111 -79 160t-159 49q-92 0 -151.5 -49t-83.5 -160z" />
<glyph unicode="f" horiz-adv-x="772" d="M43 860v209h160v227q0 33 7.5 68t29 76.5t54 73.5t90 53.5t130.5 21.5q56 0 100.5 -3t61.5 -6l16 -3v-229q-33 6 -96 6q-60 0 -85.5 -26.5t-25.5 -80.5v-178h201v-209h-201v-860h-282v860h-160z" />
<glyph unicode="g" horiz-adv-x="1312" d="M74 535q0 158 61 285.5t172 200.5t250 73q116 0 201 -49t125 -121v145h282v-1073q0 -234 -138 -352.5t-427 -118.5q-104 0 -189 23.5t-140 61t-92.5 86.5t-53.5 98.5t-16 99.5h276q0 -72 63 -110t170 -38q49 0 83.5 4.5t71.5 19.5t59 42t36.5 75t14.5 115v141 q-56 -80 -132 -124t-194 -44q-139 0 -250 73t-172 201t-61 286zM356 535q0 -178 70.5 -266.5t189.5 -88.5q54 0 102.5 20.5t89 62t64 111.5t23.5 161t-23.5 161t-64 111t-89 61.5t-102.5 20.5q-119 0 -189.5 -88t-70.5 -266z" />
<glyph unicode="h" horiz-adv-x="1271" d="M147 0v1573h283v-664q12 23 35 50.5t62.5 60t100 53.5t130.5 21q89 0 156.5 -28.5t109 -76t67.5 -117.5t36 -144.5t10 -166.5v-561h-283v580q0 66 -8.5 114t-28.5 87t-58 59t-93 20q-44 0 -83.5 -15t-75 -47.5t-56.5 -92t-21 -140.5v-565h-283z" />
<glyph unicode="i" horiz-adv-x="589" d="M147 1278v295h295v-295h-295zM154 0v1069h282v-1069h-282z" />
<glyph unicode="j" horiz-adv-x="589" d="M-55 -221q41 -6 104 -6q57 0 81 24.5t24 85.5v1186h282v-1233q0 -23 -1.5 -44t-8.5 -54t-18.5 -60t-34.5 -56.5t-54 -50t-79 -33.5t-107 -13q-54 0 -101 2.5t-67 4.5l-20 3v244zM147 1278v295h295v-295h-295z" />
<glyph unicode="k" horiz-adv-x="1216" d="M147 0v1573h283v-844l350 340h355l-398 -381l461 -688h-340l-321 498l-107 -103v-395h-283z" />
<glyph unicode="l" horiz-adv-x="577" d="M147 0v1573h283v-1573h-283z" />
<glyph unicode="m" horiz-adv-x="1976" d="M147 0v1069h283v-154q12 23 35 49.5t62.5 57.5t100 51.5t130.5 20.5q238 0 325 -203q1 2 12 19.5t15.5 24.5t18 25.5t23.5 28t28.5 26t35.5 25.5t42 21t51 18t59.5 10.5t69.5 4.5q96 0 168.5 -28.5t116.5 -76t71 -118t37 -144.5t10 -166v-561h-282v580q0 136 -40.5 208 t-146.5 72q-51 0 -91 -14.5t-73.5 -49t-52 -99t-18.5 -156.5v-541h-283v580q0 66 -8.5 114t-28.5 87t-58 59t-93 20q-44 0 -83.5 -15t-75 -47.5t-56.5 -92t-21 -140.5v-565h-283z" />
<glyph unicode="n" horiz-adv-x="1271" d="M147 0v1069h283v-154q12 23 35 49.5t62.5 57.5t100 51.5t130.5 20.5q89 0 156.5 -28.5t109 -76t67.5 -117.5t36 -144.5t10 -166.5v-561h-283v580q0 66 -8.5 114t-28.5 87t-58 59t-93 20q-44 0 -83.5 -15t-75 -47.5t-56.5 -92t-21 -140.5v-565h-283z" />
<glyph unicode="o" horiz-adv-x="1232" d="M74 535q0 113 37 214t104.5 178t171 122t229.5 45t229.5 -45t171.5 -122t105 -178t37 -214t-37 -214.5t-105 -178.5t-171.5 -122t-229.5 -45q-166 0 -291.5 78t-188 203.5t-62.5 278.5zM356 535q0 -186 65 -274.5t195 -88.5q261 0 261 355v8q-1 186 -66.5 274t-194.5 88 q-130 0 -195 -88t-65 -274z" />
<glyph unicode="p" horiz-adv-x="1306" d="M147 -475v1544h283v-145q40 72 125 121t201 49q210 0 343.5 -159t133.5 -400q0 -242 -133.5 -401t-343.5 -159q-128 0 -211 47.5t-115 120.5v-618h-283zM418 535q0 -91 23.5 -161t63.5 -111.5t88.5 -62t102.5 -20.5q119 0 186.5 88t67.5 267q0 178 -67.5 266t-186.5 88 q-54 0 -102.5 -20.5t-88.5 -61.5t-63.5 -111t-23.5 -161z" />
<glyph unicode="q" horiz-adv-x="1306" d="M74 535q0 241 133.5 400t343.5 159q116 0 201 -49t125 -121v145h282v-1544h-282v618q-105 -168 -326 -168q-210 0 -343.5 159t-133.5 401zM356 535q0 -179 67.5 -267t186.5 -88q54 0 102.5 20.5t89 62t64 111.5t23.5 161t-23.5 161t-64 111t-89 61.5t-102.5 20.5 q-119 0 -186.5 -88t-67.5 -266z" />
<glyph unicode="r" horiz-adv-x="851" d="M147 0v1069h283v-211q6 22 24 50.5t51.5 61.5t76 60.5t104 45.5t129.5 18v-283q-18 1 -35 1q-40 0 -80 -6q-56 -10 -105.5 -34t-86 -60.5t-57.5 -91.5t-21 -122v-498h-283z" />
<glyph unicode="s" horiz-adv-x="1050" d="M74 338h270q4 -166 203 -166q162 0 162 109q0 42 -20.5 71.5t-55 46t-80 28t-95 21.5t-99 22t-95 35t-80 55.5t-55 87t-20.5 126.5q0 137 110.5 228.5t286.5 91.5q104 0 184 -25t125 -61t74 -84.5t39 -86.5t12 -75h-283q0 63 -36 101t-109 38q-50 0 -89.5 -27t-39.5 -75 q0 -47 33 -75t85 -41.5t115.5 -24.5t127 -31.5t115.5 -54.5t85 -102t33 -165q0 -143 -120 -236.5t-314 -93.5q-89 0 -161.5 14.5t-120.5 37.5t-84 56t-55 65t-30.5 70t-14.5 64.5t-3 55.5z" />
<glyph unicode="t" horiz-adv-x="768" d="M43 860v209h154v338h282v-338h191v-209h-191v-557q0 -48 24.5 -70t80.5 -22q28 0 54 1.5t38 3.5l12 1v-231q-67 -11 -188 -11q-303 0 -303 281v604h-154z" />
<glyph unicode="u" horiz-adv-x="1271" d="M135 508v561h283v-580q0 -66 8.5 -114t28.5 -87t58 -59t93 -20q44 0 83.5 15t75 47.5t56.5 92t21 140.5v565h282v-1069h-282v147q-11 -22 -35 -48t-63 -55.5t-99.5 -49t-130.5 -19.5q-89 0 -156.5 28.5t-109 76t-67.5 117.5t-36 144.5t-10 166.5z" />
<glyph unicode="v" horiz-adv-x="1050" d="M25 1069h284l219 -793l220 793h278l-367 -1069h-268z" />
<glyph unicode="w" horiz-adv-x="1708" d="M31 1069h284l201 -780l232 780h213l231 -780l201 780h284l-348 -1069h-268l-207 678l-207 -678h-268z" />
<glyph unicode="x" horiz-adv-x="1159" d="M25 0l403 557l-362 512h317l190 -326l191 326h305l-348 -512l414 -557h-318l-250 379l-237 -379h-305z" />
<glyph unicode="y" horiz-adv-x="1075" d="M25 1069h290l226 -811l225 811h285l-379 -1081q-7 -21 -21 -67t-24 -76t-29 -75.5t-37.5 -76t-48 -65t-62.5 -55t-79.5 -34.5t-100.5 -14q-55 0 -103.5 4.5t-69.5 8.5l-21 5v236q70 -15 131 -15q38 0 57 1.5t42.5 10t37 25.5t27 47.5t24.5 77.5l15 62z" />
<glyph unicode="z" horiz-adv-x="1028" d="M104 0v203l492 669h-473v197h770v-203l-490 -669h521v-197h-820z" />
<glyph unicode="{" horiz-adv-x="653" d="M0 430v205q74 0 112 38t38 91v483q0 24 1.5 46.5t8 56t17 61.5t31 58t48.5 50.5t70.5 34t95.5 13.5l188 -4v-234q-17 4 -80 4q-50 0 -80 -41t-30 -92v-434q0 -151 -156 -234q156 -83 156 -233v-408q0 -51 30 -92t80 -41l80 4v-233q-86 -4 -188 -4q-61 0 -108.5 16.5 t-76 46.5t-47.5 62t-27 72t-10.5 66.5t-2.5 55.5v457q0 53 -38 91t-112 38z" />
<glyph unicode="|" horiz-adv-x="544" d="M147 -475v2017h250v-2017h-250z" />
<glyph unicode="}" horiz-adv-x="653" d="M43 -238q17 -4 80 -4q50 0 80 41t30 92v408q0 150 156 233q-156 83 -156 234v434q0 51 -30 92t-80 41l-80 -4v234q86 4 188 4q53 0 95.5 -13.5t70.5 -34t49 -50.5t31.5 -58t17 -61.5t8 -56t1.5 -46.5v-483q0 -53 37.5 -91t111.5 -38v-205q-74 0 -111.5 -38t-37.5 -91 v-457q0 -36 -3.5 -68.5t-19.5 -81.5t-43 -83.5t-80.5 -60t-126.5 -25.5l-188 4v233z" />
<glyph unicode="~" horiz-adv-x="944" d="M104 522q1 65 21 114t51 75t70.5 38.5t79 10.5t77.5 -15l236 -67q84 -27 84 63h117q-1 -66 -19.5 -114t-48.5 -74.5t-69.5 -39t-80.5 -10.5t-83 15l-230 68q-88 27 -88 -64h-117z" />
<glyph unicode="&#xa1;" horiz-adv-x="608" d="M135 1204v338h338v-338h-338zM145 0l58 1038h203l57 -1038h-318z" />
<glyph unicode="&#xa2;" horiz-adv-x="1187" d="M74 535q0 141 53 259.5t159.5 198.5t250.5 97v243h153v-243q168 -23 276.5 -127.5t145.5 -260.5h-278q-18 79 -52 124.5t-92 60.5v-705q67 17 103.5 70.5t48.5 148.5h278q-24 -165 -138 -280t-292 -139v-250h-153v248q-146 15 -252.5 95t-158.5 198.5t-52 261.5zM356 535 q0 -158 45 -245t136 -110v709q-92 -23 -136.5 -109.5t-44.5 -244.5z" />
<glyph unicode="&#xa3;" horiz-adv-x="1349" d="M92 594v184h135q-4 6 -20.5 27t-22 28.5t-20 27.5t-20 31.5t-16.5 32.5t-15.5 38t-10.5 40t-8 47.5t-2 51.5q0 49 16.5 99.5t57 104t100.5 95t155.5 68t213.5 26.5q92 0 169 -17.5t129.5 -44.5t94 -65.5t65.5 -76t41 -81t23.5 -75t9.5 -62.5h-276q-9 103 -70.5 146 t-191.5 43q-128 0 -194 -50.5t-66 -121.5q0 -52 15.5 -97.5t35 -73t50.5 -69t48 -72.5h330v-184h-275q2 -18 2 -62q0 -180 -153 -309q56 29 115 37t108.5 0.5t100 -20.5t97 -22t91.5 -8.5t92 23.5t90 72l141 -184q-55 -74 -122.5 -111t-137 -39.5t-144 9.5t-152 29.5 t-151 27.5t-152 -4t-144.5 -58l-152 152q47 47 81 85t71 89t56.5 102.5t19.5 100.5q0 36 -8 90h-230z" />
<glyph unicode="&#xa4;" horiz-adv-x="989" d="M129 442l84 86q-61 94 -61 211q0 115 61 209l-84 84l68 68l79 -78q87 74 216 74q128 0 215 -74l79 78l68 -68l-84 -86q57 -92 57 -207q0 -119 -57 -211l84 -86l-68 -67l-79 80q-86 -76 -215 -76q-127 0 -216 76l-79 -80zM291 739q0 -112 59 -169.5t142 -57.5 q84 0 143 57.5t59 169.5t-59 169t-143 57q-83 0 -142 -57t-59 -169z" />
<glyph unicode="&#xa5;" horiz-adv-x="1439" d="M25 1464h335l361 -635l358 635h336l-471 -739h322v-178h-412v-135h412v-179h-412v-233h-281v233h-399v179h399v135h-399v178h311z" />
<glyph unicode="&#xa6;" horiz-adv-x="544" d="M147 350h250v-850h-250v850zM147 692v850h250v-850h-250z" />
<glyph unicode="&#xa7;" horiz-adv-x="1349" d="M92 535q0 95 57 172t160 118q-69 91 -69 213q0 137 110.5 228.5t286.5 91.5q104 0 184 -25t125 -61t74 -84.5t39 -86.5t12 -75h-283q0 64 -35 101.5t-108 37.5q-49 0 -86 -29.5t-37 -78.5q0 -47 31.5 -87.5t83.5 -69.5t118 -62.5t134.5 -64t134.5 -76t118 -97.5 t83.5 -129.5t31.5 -169.5q0 -101 -45.5 -174t-134.5 -111q31 -81 31 -161q0 -143 -120 -236.5t-314 -93.5q-89 0 -161.5 14.5t-120.5 37.5t-84 56t-55 64.5t-30.5 69.5t-14.5 64.5t-3 55.5h270q1 -34 9 -60.5t27 -52t59 -39.5t98 -14q78 0 120.5 30.5t42.5 84.5 q0 60 -41 107t-106 79t-143.5 63t-157.5 68.5t-144 85t-106 123.5t-41 173zM350 578q0 -53 44.5 -96t119.5 -78t156 -69t171 -84.5t148 -107.5q45 31 45 107q0 68 -38.5 123t-107 97t-141 75.5t-164 78t-151.5 85.5q-82 -28 -82 -131z" />
<glyph unicode="&#xa8;" horiz-adv-x="866" d="M104 1303v270h228v-270h-228zM535 1303v270h227v-270h-227z" />
<glyph unicode="&#xa9;" horiz-adv-x="1769" d="M92 774q-1 67 13 140.5t45 151t76 149.5t111 136.5t145 112t183 75.5t220 28t219.5 -28t182 -75.5t144.5 -112t110.5 -136.5t76 -149.5t45.5 -151t14 -140.5t-14 -141t-45.5 -152t-76 -150.5t-110.5 -137.5t-144.5 -113.5t-182 -76.5t-219.5 -28q-135 0 -252 37.5 t-201.5 101.5t-150.5 145t-106 171.5t-61 177.5t-22 166zM270 774q0 -176 76 -321t217.5 -231.5t321.5 -86.5t321.5 86.5t217 231.5t75.5 321t-75.5 319.5t-217 228.5t-321.5 85t-321.5 -85t-217.5 -228.5t-76 -319.5zM520 776q0 70 22.5 138t66 127.5t117.5 96t167 36.5 q153 0 239.5 -84t98.5 -203h-170q-7 67 -52 103t-110 36q-85 0 -143 -64t-58 -186t56.5 -186t144.5 -66q87 0 126.5 38.5t41.5 117.5h170q-4 -61 -24.5 -113.5t-60 -96t-106.5 -68.5t-155 -25q-73 0 -135 24.5t-104.5 64.5t-73 92.5t-44.5 107.5t-14 110z" />
<glyph unicode="&#xaa;" horiz-adv-x="960" d="M104 985q0 49 17 88.5t46 65t67 44t79.5 28.5t83.5 15.5t79.5 7.5t66.5 3h12v80q0 54 -30.5 81t-82.5 27q-116 0 -116 -114h-199q0 33 8.5 65.5t30.5 67.5t56 62t89.5 44t126.5 17q86 0 155.5 -26t114 -84.5t44.5 -141.5v-311q0 -49 14.5 -64.5t52.5 -15.5l37 4v-156 q-6 -10 -76 -10q-92 0 -139.5 37t-69.5 100q-12 -51 -71.5 -94t-153.5 -43q-113 0 -177.5 65t-64.5 158zM303 985q0 -36 26.5 -57t71.5 -21q61 0 107.5 57t46.5 152v8q-53 -2 -91.5 -7.5t-78.5 -19.5t-61 -42t-21 -70z" />
<glyph unicode="&#xab;" horiz-adv-x="1128" d="M104 510v248l420 299v-252l-248 -170l248 -172v-252zM604 510v248l420 299v-252l-248 -170l248 -172v-252z" />
<glyph unicode="&#xac;" horiz-adv-x="1198" d="M74 700v197h1020v-584h-179v387h-841z" />
<glyph unicode="&#xad;" horiz-adv-x="761" d="M92 504v258h578v-258h-578z" />
<glyph unicode="&#xae;" horiz-adv-x="1769" d="M92 774q-1 67 13 140.5t45 151t76 149.5t111 136.5t145 112t183 75.5t220 28t219.5 -28t182 -75.5t144.5 -112t110.5 -136.5t76 -149.5t45.5 -151t14 -140.5t-14 -141t-45.5 -152t-76 -150.5t-110.5 -137.5t-144.5 -113.5t-182 -76.5t-219.5 -28q-135 0 -252 37.5 t-201.5 101.5t-150.5 145t-106 171.5t-61 177.5t-22 166zM270 774q0 -176 76 -321t217.5 -231.5t321.5 -86.5t321.5 86.5t217 231.5t75.5 321t-75.5 319.5t-217 228.5t-321.5 85t-321.5 -85t-217.5 -228.5t-76 -319.5zM573 420v733h388q69 0 122.5 -14t87 -36t55 -53t30 -63 t8.5 -67q0 -51 -17 -94t-64 -80t-120 -52l207 -274h-203l-195 266h-120v-266h-179zM752 834h153q103 0 141.5 19.5t38.5 66.5t-38.5 66.5t-141.5 19.5h-153v-172z" />
<glyph unicode="&#xaf;" horiz-adv-x="811" d="M104 1370v172h603v-172h-603z" />
<glyph unicode="&#xb0;" horiz-adv-x="933" d="M104 1229q0 156 99.5 264.5t265.5 108.5q112 0 195 -52t124 -136t41 -185q0 -155 -97 -263t-263 -108q-167 0 -266 106.5t-99 264.5zM297 1229q0 -75 41.5 -128.5t130.5 -53.5q86 0 127 55t41 127q0 73 -41 127.5t-127 54.5q-89 0 -130.5 -54.5t-41.5 -127.5z" />
<glyph unicode="&#xb1;" horiz-adv-x="1306" d="M104 0v197h1098v-197h-1098zM104 717v196h451v408h197v-408h450v-196h-450v-398h-197v398h-451z" />
<glyph unicode="&#xb2;" horiz-adv-x="786" d="M104 1227q-2 44 5 86t27.5 84t52.5 73.5t84 51.5t118 20q71 0 126 -25t86.5 -66t47 -88t15.5 -97q0 -52 -10.5 -98.5t-26 -81t-42.5 -68t-50.5 -55t-60.5 -46.5t-61 -38.5t-63 -34.5h330v-148h-561v152q203 95 295 189.5t92 230.5q0 50 -29 88.5t-94 38.5 q-132 0 -129 -168h-152z" />
<glyph unicode="&#xb3;" horiz-adv-x="835" d="M92 991h150q4 -92 52 -127t134 -35q72 0 113 33.5t41 93.5q0 113 -179 113h-129v121h129q148 3 148 115q0 37 -32 69.5t-93 32.5q-68 0 -110.5 -33t-43.5 -94h-147q2 53 20 99.5t53.5 85t94.5 61t135 22.5q128 0 206.5 -65t78.5 -158q0 -82 -39 -122t-123 -62 q96 -13 144 -68.5t48 -144.5q0 -110 -89 -173t-232 -63q-78 0 -137.5 19.5t-94.5 49t-57.5 71t-31 79.5t-9.5 80z" />
<glyph unicode="&#xb4;" horiz-adv-x="638" d="M104 1255l162 344h269l-246 -344h-185z" />
<glyph unicode="&#xb6;" horiz-adv-x="1449" d="M74 1049q0 90 36 178t99 158.5t158 113.5t204 43h707v-2017h-264v1821h-178v-1821h-265v1030q-108 0 -203 43.5t-158 113.5t-99.5 158.5t-36.5 178.5z" />
<glyph unicode="&#xb7;" horiz-adv-x="583" d="M123 369v338h338v-338h-338z" />
<glyph unicode="&#xb8;" horiz-adv-x="714" d="M104 -422l41 90q98 -55 185 -55q49 0 89 21t40 59q0 35 -19.5 54.5t-52 23t-66.5 -1t-69 -15.5l-78 74l170 256l84 -59l-127 -189q102 40 170.5 24.5t103.5 -60t35 -105.5q0 -79 -62.5 -137t-180.5 -58q-50 0 -95.5 8t-74.5 19.5t-51 23t-32 19.5z" />
<glyph unicode="&#xb9;" horiz-adv-x="530" d="M104 1303v133q74 0 118 21.5t52 84.5h152v-829h-178v606q-55 -19 -144 -16z" />
<glyph unicode="&#xba;" horiz-adv-x="991" d="M104 1163q0 110 45.5 201t136 147t210.5 56t210.5 -56t135.5 -147t45 -201q0 -168 -106 -284.5t-285 -116.5q-120 0 -210.5 56t-136 146t-45.5 199zM309 1163q0 -260 187 -260q189 0 186 260q0 135 -46.5 198.5t-139.5 63.5q-94 0 -140.5 -63.5t-46.5 -198.5z" />
<glyph unicode="&#xbb;" horiz-adv-x="1128" d="M104 211v252l248 172l-248 170v252l420 -299v-248zM604 211v252l248 172l-248 170v252l420 -299v-248z" />
<glyph unicode="&#xbc;" horiz-adv-x="1654" d="M92 1303v133q74 0 118 21.5t52 84.5h152v-829h-178v606q-55 -19 -144 -16zM326 0l712 1542h162l-713 -1542h-161zM903 197v159l371 478h182v-492h107v-145h-107v-197h-178v197h-375zM1036 342h242v311z" />
<glyph unicode="&#xbd;" horiz-adv-x="1662" d="M92 1303v133q74 0 118 21.5t52 84.5h152v-829h-178v606q-55 -19 -144 -16zM326 0l712 1542h162l-713 -1542h-161zM993 530q-2 44 5 86t27.5 84.5t52.5 74t84 51.5t118 20q71 0 126 -25t86 -66.5t46.5 -88.5t15.5 -97q0 -52 -10.5 -98.5t-26 -81t-42.5 -68t-50 -55 t-60 -46.5t-61 -38.5t-63 -34.5h330v-147h-561v152q204 95 295.5 189.5t91.5 229.5q0 50 -29 88.5t-94 38.5q-132 0 -129 -168h-152z" />
<glyph unicode="&#xbe;" horiz-adv-x="1869" d="M92 991h150q4 -92 52 -127t134 -35q72 0 113 33.5t41 93.5q0 113 -179 113h-129v121h129q148 3 148 115q0 37 -32 69.5t-93 32.5q-68 0 -110.5 -33t-43.5 -94h-147q2 53 20 99.5t53.5 85t94.5 61t135 22.5q128 0 206.5 -65t78.5 -158q0 -82 -39 -122t-123 -62 q96 -13 144 -68.5t48 -144.5q0 -110 -89 -173t-232 -63q-78 0 -137.5 19.5t-94.5 49t-57.5 71t-31 79.5t-9.5 80zM541 0l712 1542h162l-713 -1542h-161zM1118 197v159l371 478h182v-492h107v-145h-107v-197h-178v197h-375zM1251 342h242v311z" />
<glyph unicode="&#xbf;" horiz-adv-x="1302" d="M111 416q0 83 24.5 149.5t63 110t85.5 79.5t94 66t85.5 62t63 76t24.5 98v6h295v-19q0 -81 -24.5 -144t-63 -102t-85.5 -70.5t-94 -58.5t-85.5 -56.5t-63 -73t-24.5 -99.5q0 -90 65.5 -139t175.5 -49q118 0 188 71.5t68 170.5h289q0 -29 -7 -66t-24.5 -85.5t-44.5 -95 t-71.5 -92t-100 -79.5t-135 -55t-172.5 -21q-115 0 -208 28t-151 71t-97 100t-54.5 110.5t-15.5 106.5zM528 1229v338h338v-338h-338z" />
<glyph unicode="&#xc0;" horiz-adv-x="1499" d="M25 0l557 1542h340l553 -1542h-316l-133 393h-559l-133 -393h-309zM510 1954h268l162 -344h-184zM553 645h387l-192 569z" />
<glyph unicode="&#xc1;" horiz-adv-x="1499" d="M25 0l557 1542h340l553 -1542h-316l-133 393h-559l-133 -393h-309zM553 645h387l-192 569zM565 1610l162 344h268l-245 -344h-185z" />
<glyph unicode="&#xc2;" horiz-adv-x="1499" d="M25 0l557 1542h340l553 -1542h-316l-135 393h-553l-137 -393h-309zM393 1610l248 301h211l248 -301h-217l-135 170l-136 -170h-219zM559 645h377l-188 569z" />
<glyph unicode="&#xc3;" horiz-adv-x="1499" d="M25 0l557 1542h340l553 -1542h-316l-135 393h-553l-137 -393h-309zM451 1616q1 55 17 95.5t41.5 62t58 31.5t65 8.5t65.5 -11.5l199 -55q68 -21 68 51h94q-1 -55 -16 -95t-39.5 -62t-57.5 -32t-67 -8.5t-70 11.5l-193 55q-71 21 -71 -51h-94zM559 645h377l-188 569z" />
<glyph unicode="&#xc4;" horiz-adv-x="1499" d="M25 0l557 1542h340l553 -1542h-316l-135 393h-553l-137 -393h-309zM418 1628v270h227v-270h-227zM559 645h377l-188 569zM848 1628v270h227v-270h-227z" />
<glyph unicode="&#xc5;" horiz-adv-x="1499" d="M25 0l557 1542h340l553 -1542h-316l-133 393h-559l-133 -393h-309zM553 645h387l-192 569zM553 1774q0 77 53 133.5t142 56.5t139.5 -56.5t50.5 -133.5q0 -76 -50.5 -132.5t-139.5 -56.5t-142 56t-53 133zM645 1774q0 -46 28.5 -74.5t74.5 -28.5q43 0 71.5 29t28.5 74 q0 47 -28.5 75.5t-71.5 28.5q-46 0 -74.5 -28.5t-28.5 -75.5z" />
<glyph unicode="&#xc6;" horiz-adv-x="2019" d="M25 0l557 1542h1327v-252h-713v-370h633v-252h-633v-416h713v-252h-1008v393h-430l-137 -393h-309zM559 645h342v645h-115v8z" />
<glyph unicode="&#xc7;" horiz-adv-x="1591" d="M92 774q0 111 25 219.5t82.5 213t140 184t207.5 128t276 48.5q159 0 283.5 -43t203 -118.5t122.5 -169t55 -204.5h-289q-9 75 -43 131.5t-86 88t-110.5 46.5t-124.5 15q-96 0 -173.5 -28.5t-139 -90t-95 -168t-33.5 -252.5q0 -147 31 -253.5t90 -169.5t136 -92.5 t177 -31.5q67 0 119 8.5t101 31t82 60t54.5 98t26.5 142.5h289q-4 -93 -26.5 -175t-71 -156.5t-120 -129.5t-177.5 -90t-238 -41l-94 -139q102 40 170.5 24.5t103.5 -60t35 -105.5q0 -79 -62.5 -137t-180.5 -58q-50 0 -95.5 8t-74.5 19.5t-51 23t-32 19.5l-10 8l41 90 q98 -55 185 -55q49 0 89 21t40 59q0 35 -19.5 54.5t-52 23t-66.5 -1t-69 -15.5l-78 74l100 152q-131 11 -241.5 65t-185 134t-126.5 181t-76 205.5t-24 208.5z" />
<glyph unicode="&#xc8;" horiz-adv-x="1456" d="M172 0v1542h1174v-252h-879v-370h799v-252h-799v-416h879v-252h-1174zM492 1954h268l162 -344h-185z" />
<glyph unicode="&#xc9;" horiz-adv-x="1456" d="M172 0v1542h1174v-252h-879v-370h799v-252h-799v-416h879v-252h-1174zM553 1610l162 344h268l-246 -344h-184z" />
<glyph unicode="&#xca;" horiz-adv-x="1456" d="M172 0v1542h1174v-252h-879v-370h799v-252h-799v-416h879v-252h-1174zM426 1610l248 301h211l248 -301h-218l-135 170l-135 -170h-219z" />
<glyph unicode="&#xcb;" horiz-adv-x="1456" d="M172 0v1542h1174v-252h-879v-370h799v-252h-799v-416h879v-252h-1174zM430 1628v270h227v-270h-227zM860 1628v270h227v-270h-227z" />
<glyph unicode="&#xcc;" horiz-adv-x="638" d="M59 1954h269l161 -344h-184zM172 0v1542h295v-1542h-295z" />
<glyph unicode="&#xcd;" horiz-adv-x="638" d="M133 1610l162 344h268l-246 -344h-184zM172 0v1542h295v-1542h-295z" />
<glyph unicode="&#xce;" horiz-adv-x="638" d="M-39 1610l248 301h211l248 -301h-217l-136 170l-135 -170h-219zM172 0v1542h295v-1542h-295z" />
<glyph unicode="&#xcf;" horiz-adv-x="638" d="M-12 1628v270h227v-270h-227zM172 0v1542h295v-1542h-295zM418 1628v270h227v-270h-227z" />
<glyph unicode="&#xd0;" horiz-adv-x="1613" d="M31 651v234h141v657h549q131 0 241.5 -24t191.5 -65t145 -99.5t105.5 -125t68.5 -144t38 -153.5t11 -157q0 -116 -22 -220.5t-79 -208t-145 -178t-230.5 -121t-324.5 -46.5h-549v651h-141zM467 252h291q67 0 122.5 9t110.5 30t96.5 59.5t73.5 95t49 139.5t17 189 q0 126 -25.5 219.5t-66.5 149.5t-103.5 89.5t-127 45.5t-146.5 12h-291v-405h328v-234h-328v-399z" />
<glyph unicode="&#xd1;" horiz-adv-x="1718" d="M172 0v1542h320l759 -1130v1130h295v-1542h-317l-762 1133v-1133h-295zM567 1616q1 55 17.5 95.5t41.5 62t58 31.5t65.5 8.5t65.5 -11.5l199 -55q67 -21 67 51h95q-1 -55 -16 -95t-39.5 -62t-57.5 -32t-67 -8.5t-70 11.5l-193 55q-71 21 -71 -51h-95z" />
<glyph unicode="&#xd2;" d="M92 774q0 112 27 222t87 213.5t145 182.5t210.5 127t274.5 48q150 0 276 -48t211 -127t144.5 -182.5t86.5 -213.5t27 -222t-26.5 -222.5t-86 -215t-144 -184.5t-211 -128.5t-277.5 -48.5q-149 0 -274.5 48.5t-210.5 128.5t-145 184.5t-87 215t-27 222.5zM387 774 q0 -143 34 -250.5t96 -171t142 -94.5t177 -31t177 31t142 94.5t96.5 171t34.5 250.5q0 144 -34.5 250.5t-96.5 169t-141.5 92t-177.5 29.5t-177 -29.5t-141.5 -92t-96.5 -169t-34 -250.5zM569 1954h269l161 -344h-184z" />
<glyph unicode="&#xd3;" d="M92 774q0 112 27 222t87 213.5t145 182.5t210.5 127t274.5 48q150 0 276 -48t211 -127t144.5 -182.5t86.5 -213.5t27 -222t-26.5 -222.5t-86 -215t-144 -184.5t-211 -128.5t-277.5 -48.5q-149 0 -274.5 48.5t-210.5 128.5t-145 184.5t-87 215t-27 222.5zM387 774 q0 -143 34 -250.5t96 -171t142 -94.5t177 -31t177 31t142 94.5t96.5 171t34.5 250.5q0 144 -34.5 250.5t-96.5 169t-141.5 92t-177.5 29.5t-177 -29.5t-141.5 -92t-96.5 -169t-34 -250.5zM631 1610l162 344h268l-246 -344h-184z" />
<glyph unicode="&#xd4;" d="M92 774q0 112 27 222t87 213.5t145 182.5t210.5 127t274.5 48q150 0 276 -48t211 -127t144.5 -182.5t86.5 -213.5t27 -222t-26.5 -222.5t-86 -215t-144 -184.5t-211 -128.5t-277.5 -48.5q-149 0 -274.5 48.5t-210.5 128.5t-145 184.5t-87 215t-27 222.5zM387 774 q0 -143 34 -250.5t96 -171t142 -94.5t177 -31t177 31t142 94.5t96.5 171t34.5 250.5q0 144 -34.5 250.5t-96.5 169t-141.5 92t-177.5 29.5t-177 -29.5t-141.5 -92t-96.5 -169t-34 -250.5zM481 1610l248 301h211l248 -301h-217l-135 170l-136 -170h-219z" />
<glyph unicode="&#xd5;" d="M92 774q0 112 27 222t87 213.5t145 182.5t210.5 127t274.5 48q150 0 276 -48t211 -127t144.5 -182.5t86.5 -213.5t27 -222t-26.5 -222.5t-86 -215t-144 -184.5t-211 -128.5t-277.5 -48.5q-149 0 -274.5 48.5t-210.5 128.5t-145 184.5t-87 215t-27 222.5zM387 774 q0 -143 34 -250.5t96 -171t142 -94.5t177 -31t177 31t142 94.5t96.5 171t34.5 250.5q0 144 -34.5 250.5t-96.5 169t-141.5 92t-177.5 29.5t-177 -29.5t-141.5 -92t-96.5 -169t-34 -250.5zM532 1616q1 55 17.5 95.5t41.5 62t58 31.5t65.5 8.5t65.5 -11.5l199 -55 q68 -21 68 51h94q-1 -55 -16 -95t-39.5 -62t-57.5 -32t-67 -8.5t-70 11.5l-193 55q-71 21 -71 -51h-95z" />
<glyph unicode="&#xd6;" d="M92 774q0 112 27 222t87 213.5t145 182.5t210.5 127t274.5 48q150 0 276 -48t211 -127t144.5 -182.5t86.5 -213.5t27 -222t-26.5 -222.5t-86 -215t-144 -184.5t-211 -128.5t-277.5 -48.5q-149 0 -274.5 48.5t-210.5 128.5t-145 184.5t-87 215t-27 222.5zM387 774 q0 -143 34 -250.5t96 -171t142 -94.5t177 -31t177 31t142 94.5t96.5 171t34.5 250.5q0 144 -34.5 250.5t-96.5 169t-141.5 92t-177.5 29.5t-177 -29.5t-141.5 -92t-96.5 -169t-34 -250.5zM500 1628v270h227v-270h-227zM930 1628v270h227v-270h-227z" />
<glyph unicode="&#xd7;" horiz-adv-x="1306" d="M197 453l317 319l-317 320l137 137l319 -318l320 318l137 -137l-317 -320l317 -319l-137 -138l-320 318l-319 -318z" />
<glyph unicode="&#xd8;" d="M92 774q0 112 27 222t87 213.5t145 182.5t210.5 127t274.5 48q256 0 440 -137l133 161l115 -92l-140 -170q97 -113 147 -260t50 -295q0 -112 -26.5 -222.5t-86 -215t-144 -184.5t-211 -128.5t-277.5 -48.5q-260 0 -445 144l-137 -166l-115 92l146 176q-95 115 -144 260.5 t-49 292.5zM387 774q0 -206 72 -340l653 797q-108 84 -276 84q-98 0 -177 -29.5t-141.5 -92t-96.5 -169t-34 -250.5zM553 317q115 -90 283 -90q97 0 177 31t142 94.5t96.5 171t34.5 250.5q0 208 -76 344z" />
<glyph unicode="&#xd9;" horiz-adv-x="1597" d="M154 545v997h295v-967q0 -348 350 -348t350 348v967h295v-997q0 -119 -42 -221.5t-121 -180.5t-203 -123t-279 -45t-279 45t-203 123t-121 180.5t-42 221.5zM516 1954h268l162 -344h-184z" />
<glyph unicode="&#xda;" horiz-adv-x="1597" d="M154 545v997h295v-967q0 -348 350 -348t350 348v967h295v-997q0 -119 -42 -221.5t-121 -180.5t-203 -123t-279 -45t-279 45t-203 123t-121 180.5t-42 221.5zM666 1610l161 344h269l-246 -344h-184z" />
<glyph unicode="&#xdb;" horiz-adv-x="1597" d="M154 545v997h295v-967q0 -348 350 -348t350 348v967h295v-997q0 -119 -42 -221.5t-121 -180.5t-203 -123t-279 -45t-279 45t-203 123t-121 180.5t-42 221.5zM444 1610l248 301h211l248 -301h-217l-135 170l-135 -170h-220z" />
<glyph unicode="&#xdc;" horiz-adv-x="1597" d="M154 545v997h295v-967q0 -348 350 -348t350 348v967h295v-997q0 -119 -42 -221.5t-121 -180.5t-203 -123t-279 -45t-279 45t-203 123t-121 180.5t-42 221.5zM469 1628v270h227v-270h-227zM899 1628v270h227v-270h-227z" />
<glyph unicode="&#xdd;" horiz-adv-x="1501" d="M18 1542h355l379 -670l376 670h355l-592 -930v-612h-295v616zM571 1610l162 344h268l-245 -344h-185z" />
<glyph unicode="&#xde;" horiz-adv-x="1488" d="M172 0v1542h295v-225h383q249 0 407 -134t158 -360q0 -228 -159 -369t-406 -141h-383v-313h-295zM467 563h367q130 0 211 64t81 196q0 242 -292 242h-367v-502z" />
<glyph unicode="&#xdf;" horiz-adv-x="1402" d="M172 0v1124q0 134 72.5 236.5t189.5 154.5t256 52q131 0 242 -46.5t181.5 -141t70.5 -218.5q0 -117 -49 -196.5t-164 -120.5q169 -30 254.5 -138.5t85.5 -275.5q0 -106 -29.5 -188t-77 -131t-114 -80.5t-132 -43.5t-140 -12t-129.5 6t-109 17v240q55 -7 94.5 -11 t89.5 -4.5t85 5.5t71 20.5t58 39t36 63.5t14 91q0 157 -95 215t-323 58v219q145 0 218 47t73 158q0 74 -53 128t-152 54q-118 0 -173.5 -66t-55.5 -172v-1083h-295z" />
<glyph unicode="&#xe0;" horiz-adv-x="1134" d="M74 287q0 53 14.5 97.5t38.5 77t60 58.5t72.5 43.5t84.5 30.5t87.5 20t88.5 12t80.5 6.5t71.5 3.5q18 1 26 1v108q0 75 -42 113.5t-113 38.5q-77 0 -119.5 -40.5t-42.5 -119.5h-277q0 46 12 91.5t43 94.5t78 86t124.5 61t175.5 24q89 0 166 -21.5t137.5 -63t95.5 -110 t35 -156.5v-432q0 -68 20 -89t74 -21l51 4v-215q-8 -15 -104 -15q-127 0 -194 52t-97 139q-18 -71 -100 -131t-213 -60q-157 0 -245.5 90.5t-88.5 221.5zM272 1597h269l161 -344h-184zM350 287q0 -52 36.5 -80.5t98.5 -28.5q85 0 149 79t64 210v12q-58 -2 -101.5 -6.5 t-92.5 -17t-80.5 -32.5t-52.5 -54.5t-21 -81.5z" />
<glyph unicode="&#xe1;" horiz-adv-x="1134" d="M74 287q0 53 14.5 97.5t38.5 77t60 58.5t72.5 43.5t84.5 30.5t87.5 20t88.5 12t80.5 6.5t71.5 3.5q18 1 26 1v108q0 75 -42 113.5t-113 38.5q-77 0 -119.5 -40.5t-42.5 -119.5h-277q0 46 12 91.5t43 94.5t78 86t124.5 61t175.5 24q89 0 166 -21.5t137.5 -63t95.5 -110 t35 -156.5v-432q0 -68 20 -89t74 -21l51 4v-215q-8 -15 -104 -15q-127 0 -194 52t-97 139q-18 -71 -100 -131t-213 -60q-157 0 -245.5 90.5t-88.5 221.5zM350 287q0 -52 36.5 -80.5t98.5 -28.5q85 0 149 79t64 210v12q-58 -2 -101.5 -6.5t-92.5 -17t-80.5 -32.5t-52.5 -54.5 t-21 -81.5zM389 1253l162 344h268l-246 -344h-184z" />
<glyph unicode="&#xe2;" horiz-adv-x="1134" d="M74 287q0 53 14.5 97.5t38.5 77t60 58.5t72.5 43.5t84.5 30.5t87.5 20t88.5 12t80.5 6.5t71.5 3.5q18 1 26 1v108q0 75 -42 113.5t-113 38.5q-77 0 -119.5 -40.5t-42.5 -119.5h-277q0 46 12 91.5t43 94.5t78 86t124.5 61t175.5 24q89 0 166 -21.5t137.5 -63t95.5 -110 t35 -156.5v-432q0 -68 20 -89t74 -21l51 4v-215q-8 -15 -104 -15q-127 0 -194 52t-97 139q-18 -71 -100 -131t-213 -60q-157 0 -245.5 90.5t-88.5 221.5zM182 1223l248 301h211l248 -301h-217l-135 170l-136 -170h-219zM350 287q0 -52 36.5 -80.5t98.5 -28.5q85 0 149 79 t64 210v12q-58 -2 -101.5 -6.5t-92.5 -17t-80.5 -32.5t-52.5 -54.5t-21 -81.5z" />
<glyph unicode="&#xe3;" horiz-adv-x="1134" d="M74 287q0 53 14.5 97.5t38.5 77t60 58.5t72.5 43.5t84.5 30.5t87.5 20t88.5 12t80.5 6.5t71.5 3.5q18 1 26 1v108q0 75 -42 113.5t-113 38.5q-77 0 -119.5 -40.5t-42.5 -119.5h-277q0 46 12 91.5t43 94.5t78 86t124.5 61t175.5 24q89 0 166 -21.5t137.5 -63t95.5 -110 t35 -156.5v-432q0 -68 20 -89t74 -21l51 4v-215q-8 -15 -104 -15q-127 0 -194 52t-97 139q-18 -71 -100 -131t-213 -60q-157 0 -245.5 90.5t-88.5 221.5zM236 1296q1 55 17 95.5t41.5 62.5t58 32t65.5 8.5t65 -11.5l199 -56q68 -21 68 52h94q-1 -55 -16 -95.5t-39.5 -62.5 t-57.5 -32t-67 -8.5t-70 11.5l-193 56q-71 21 -71 -52h-94zM350 287q0 -52 36.5 -80.5t98.5 -28.5q85 0 149 79t64 210v12q-58 -2 -101.5 -6.5t-92.5 -17t-80.5 -32.5t-52.5 -54.5t-21 -81.5z" />
<glyph unicode="&#xe4;" horiz-adv-x="1134" d="M74 287q0 53 14.5 97.5t38.5 77t60 58.5t72.5 43.5t84.5 30.5t87.5 20t88.5 12t80.5 6.5t71.5 3.5q18 1 26 1v108q0 75 -42 113.5t-113 38.5q-77 0 -119.5 -40.5t-42.5 -119.5h-277q0 46 12 91.5t43 94.5t78 86t124.5 61t175.5 24q89 0 166 -21.5t137.5 -63t95.5 -110 t35 -156.5v-432q0 -68 20 -89t74 -21l51 4v-215q-8 -15 -104 -15q-127 0 -194 52t-97 139q-18 -71 -100 -131t-213 -60q-157 0 -245.5 90.5t-88.5 221.5zM215 1303v270h227v-270h-227zM350 287q0 -52 36.5 -80.5t98.5 -28.5q85 0 149 79t64 210v12q-58 -2 -101.5 -6.5 t-92.5 -17t-80.5 -32.5t-52.5 -54.5t-21 -81.5zM645 1303v270h227v-270h-227z" />
<glyph unicode="&#xe5;" horiz-adv-x="1134" d="M74 287q0 53 14.5 97.5t38.5 77t60 58.5t72.5 43.5t84.5 30.5t87.5 20t88.5 12t80.5 6.5t71.5 3.5q18 1 26 1v108q0 75 -42 113.5t-113 38.5q-77 0 -119.5 -40.5t-42.5 -119.5h-277q0 46 12 91.5t43 94.5t78 86t124.5 61t175.5 24q89 0 166 -21.5t137.5 -63t95.5 -110 t35 -156.5v-432q0 -68 20 -89t74 -21l51 4v-215q-8 -15 -104 -15q-127 0 -194 52t-97 139q-18 -71 -100 -131t-213 -60q-157 0 -245.5 90.5t-88.5 221.5zM342 1395q0 77 53 133.5t142 56.5t139.5 -56.5t50.5 -133.5q0 -76 -50.5 -132.5t-139.5 -56.5t-142 56t-53 133z M350 287q0 -52 36.5 -80.5t98.5 -28.5q85 0 149 79t64 210v12q-58 -2 -101.5 -6.5t-92.5 -17t-80.5 -32.5t-52.5 -54.5t-21 -81.5zM434 1395q0 -46 28.5 -74.5t74.5 -28.5q43 0 71.5 29t28.5 74q0 47 -28.5 75.5t-71.5 28.5q-46 0 -74.5 -28.5t-28.5 -75.5z" />
<glyph unicode="&#xe6;" horiz-adv-x="1849" d="M74 287q0 55 16 102t41.5 81.5t65 63t78.5 47t90.5 33.5t91 23t91.5 13.5t81.5 7.5t68.5 4v83q0 75 -42 113.5t-113 38.5q-77 0 -119.5 -40.5t-42.5 -119.5h-277q0 46 12 91.5t43 94.5t78 86t124.5 61t175.5 24q110 0 203.5 -33.5t152.5 -97.5q137 131 358 131 q167 0 287.5 -77.5t179 -208t58.5 -298.5h-772q4 -165 71.5 -247.5t181.5 -82.5q93 0 149 41.5t79 128.5h272q-89 -375 -518 -375q-157 0 -268 65.5t-172 180.5q-30 -109 -127 -177.5t-258 -68.5q-157 0 -248.5 91t-91.5 221zM350 287q0 -52 37.5 -80.5t104.5 -28.5 q82 0 144 82t62 207v37q-61 -2 -109 -8t-94.5 -21t-77 -38t-49 -61t-18.5 -89zM1016 688h477q-17 112 -76 160.5t-164 48.5q-201 0 -237 -209z" />
<glyph unicode="&#xe7;" horiz-adv-x="1187" d="M74 535q0 114 36 214.5t102.5 177.5t169.5 122t228 45q201 0 330.5 -108t171.5 -284h-278q-22 102 -74 148.5t-150 46.5q-129 0 -191.5 -87.5t-62.5 -274.5t62.5 -275t191.5 -88q107 0 162 55t70 174h278q-26 -176 -152.5 -294t-320.5 -130l-94 -141q102 40 170.5 24.5 t103.5 -60t35 -105.5q0 -79 -63 -137t-181 -58q-50 0 -95 8t-74.5 19.5t-51.5 23t-31 19.5l-10 8l41 90q98 -55 185 -55q49 0 89 21t40 59q0 35 -19.5 54.5t-52 23t-66.5 -1t-69 -15.5l-78 74l100 152q-143 18 -247 98t-154.5 197.5t-50.5 259.5z" />
<glyph unicode="&#xe8;" horiz-adv-x="1196" d="M74 535q0 114 34 214.5t98.5 177.5t165.5 122t226 45q126 0 226.5 -44.5t165 -123.5t98.5 -185t34 -231h-772q4 -165 72 -247.5t182 -82.5q93 0 148.5 41.5t78.5 128.5h273q-89 -375 -518 -375q-127 0 -227 45t-161 122.5t-92.5 177.5t-31.5 215zM332 1597h268l162 -344 h-184zM365 688h473q-21 111 -79 160t-159 49q-92 0 -151.5 -49t-83.5 -160z" />
<glyph unicode="&#xe9;" horiz-adv-x="1196" d="M74 535q0 114 34 214.5t98.5 177.5t165.5 122t226 45q126 0 226.5 -44.5t165 -123.5t98.5 -185t34 -231h-772q4 -165 72 -247.5t182 -82.5q93 0 148.5 41.5t78.5 128.5h273q-89 -375 -518 -375q-127 0 -227 45t-161 122.5t-92.5 177.5t-31.5 215zM365 688h473 q-21 111 -79 160t-159 49q-92 0 -151.5 -49t-83.5 -160zM428 1253l162 344h268l-246 -344h-184z" />
<glyph unicode="&#xea;" horiz-adv-x="1196" d="M74 535q0 114 34 214.5t98.5 177.5t165.5 122t226 45q126 0 226.5 -44.5t165 -123.5t98.5 -185t34 -231h-772q4 -165 72 -247.5t182 -82.5q93 0 148.5 41.5t78.5 128.5h273q-89 -375 -518 -375q-127 0 -227 45t-161 122.5t-92.5 177.5t-31.5 215zM244 1223l248 301h210 l248 -301h-217l-135 170l-135 -170h-219zM365 688h473q-21 111 -79 160t-159 49q-92 0 -151.5 -49t-83.5 -160z" />
<glyph unicode="&#xeb;" horiz-adv-x="1196" d="M74 535q0 114 34 214.5t98.5 177.5t165.5 122t226 45q126 0 226.5 -44.5t165 -123.5t98.5 -185t34 -231h-772q4 -165 72 -247.5t182 -82.5q93 0 148.5 41.5t78.5 128.5h273q-89 -375 -518 -375q-127 0 -227 45t-161 122.5t-92.5 177.5t-31.5 215zM258 1303v270h227v-270 h-227zM365 688h473q-21 111 -79 160t-159 49q-92 0 -151.5 -49t-83.5 -160zM688 1303v270h227v-270h-227z" />
<glyph unicode="&#xec;" horiz-adv-x="589" d="M20 1597h269l162 -344h-185zM154 0v1069h282v-1069h-282z" />
<glyph unicode="&#xed;" horiz-adv-x="589" d="M131 1253l162 344h268l-246 -344h-184zM154 0v1069h282v-1069h-282z" />
<glyph unicode="&#xee;" horiz-adv-x="589" d="M-59 1223l247 301h211l248 -301h-217l-135 170l-135 -170h-219zM154 0v1069h282v-1069h-282z" />
<glyph unicode="&#xef;" horiz-adv-x="589" d="M-37 1303v270h227v-270h-227zM154 0v1069h282v-1069h-282zM393 1303v270h228v-270h-228z" />
<glyph unicode="&#xf0;" horiz-adv-x="1390" d="M104 543q0 236 151 393.5t380 157.5q143 0 240 -53.5t137 -135.5q0 211 -109 363l-342 -109l-49 148l270 86q-71 55 -145 83.5t-113 28.5v37h291q7 0 27.5 -8.5t56.5 -30t72 -49.5l196 62l50 -148l-121 -39q190 -229 190 -573q0 -131 -18.5 -242.5t-63.5 -212.5 t-114.5 -172t-177 -112.5t-244.5 -41.5q-123 0 -230.5 49.5t-179.5 130t-113 182t-41 206.5zM399 545q0 -60 18.5 -118t52.5 -105.5t88 -77t118 -29.5q75 0 133 27.5t91.5 75t50 105t16.5 122.5q0 146 -74 240t-217 94q-72 0 -127.5 -28t-87 -76.5t-47 -106t-15.5 -123.5z " />
<glyph unicode="&#xf1;" horiz-adv-x="1271" d="M147 0v1069h283v-154q12 23 35 49.5t62.5 57.5t100 51.5t130.5 20.5q89 0 156.5 -28.5t109 -76t67.5 -117.5t36 -144.5t10 -166.5v-561h-283v580q0 66 -8.5 114t-28.5 87t-58 59t-93 20q-44 0 -83.5 -15t-75 -47.5t-56.5 -92t-21 -140.5v-565h-283zM340 1296 q1 55 17.5 95.5t41.5 62.5t58 32t66 8.5t65 -11.5l198 -56q68 -21 68 52h94q-1 -55 -16 -95.5t-39.5 -62.5t-57.5 -32t-67 -8.5t-70 11.5l-192 56q-72 21 -72 -52h-94z" />
<glyph unicode="&#xf2;" horiz-adv-x="1232" d="M74 535q0 113 37 214t104.5 178t171 122t229.5 45t229.5 -45t171.5 -122t105 -178t37 -214t-37 -214.5t-105 -178.5t-171.5 -122t-229.5 -45q-166 0 -291.5 78t-188 203.5t-62.5 278.5zM348 1597h268l162 -344h-184zM356 535q0 -186 65 -274.5t195 -88.5q264 0 261 363 q-1 186 -66.5 274t-194.5 88q-130 0 -195 -88t-65 -274z" />
<glyph unicode="&#xf3;" horiz-adv-x="1232" d="M74 535q0 113 37 214t104.5 178t171 122t229.5 45t229.5 -45t171.5 -122t105 -178t37 -214t-37 -214.5t-105 -178.5t-171.5 -122t-229.5 -45q-166 0 -291.5 78t-188 203.5t-62.5 278.5zM356 535q0 -186 65 -274.5t195 -88.5q264 0 261 363q-1 186 -66.5 274t-194.5 88 q-130 0 -195 -88t-65 -274zM444 1253l162 344h268l-245 -344h-185z" />
<glyph unicode="&#xf4;" horiz-adv-x="1232" d="M74 535q0 113 37 214t104.5 178t171 122t229.5 45t229.5 -45t171.5 -122t105 -178t37 -214t-37 -214.5t-105 -178.5t-171.5 -122t-229.5 -45q-166 0 -291.5 78t-188 203.5t-62.5 278.5zM262 1223l248 301h211l248 -301h-217l-136 170l-135 -170h-219zM356 535 q0 -186 65 -274.5t195 -88.5q264 0 261 363q-1 186 -66.5 274t-194.5 88q-130 0 -195 -88t-65 -274z" />
<glyph unicode="&#xf5;" horiz-adv-x="1232" d="M74 535q0 113 37 214t104.5 178t171 122t229.5 45t229.5 -45t171.5 -122t105 -178t37 -214t-37 -214.5t-105 -178.5t-171.5 -122t-229.5 -45q-166 0 -291.5 78t-188 203.5t-62.5 278.5zM303 1296q1 55 17.5 95.5t41.5 62.5t58 32t66 8.5t65 -11.5l199 -56q67 -21 67 52 h94q-1 -55 -16 -95.5t-39.5 -62.5t-57 -32t-66.5 -8.5t-70 11.5l-193 56q-72 21 -72 -52h-94zM356 535q0 -186 65 -274.5t195 -88.5q264 0 261 363q-1 186 -66.5 274t-194.5 88q-130 0 -195 -88t-65 -274z" />
<glyph unicode="&#xf6;" horiz-adv-x="1232" d="M74 535q0 113 37 214t104.5 178t171 122t229.5 45t229.5 -45t171.5 -122t105 -178t37 -214t-37 -214.5t-105 -178.5t-171.5 -122t-229.5 -45q-166 0 -291.5 78t-188 203.5t-62.5 278.5zM289 1303v270h227v-270h-227zM356 535q0 -186 65 -274.5t195 -88.5q264 0 261 363 q-1 186 -66.5 274t-194.5 88q-130 0 -195 -88t-65 -274zM719 1303v270h227v-270h-227z" />
<glyph unicode="&#xf7;" horiz-adv-x="1306" d="M104 674v196h1098v-196h-1098zM555 223v266h197v-266h-197zM555 1055v266h197v-266h-197z" />
<glyph unicode="&#xf8;" horiz-adv-x="1232" d="M33 -23l160 193q-119 153 -119 365q0 113 37 214t104.5 178t171 122t229.5 45q157 0 277 -68l121 145l116 -92l-118 -145q71 -76 109 -179.5t38 -219.5q0 -113 -37 -214.5t-105 -178.5t-171.5 -122t-229.5 -45q-177 0 -317 93l-149 -183zM356 535q0 -78 13 -148l389 473 q-58 37 -142 37q-130 0 -195 -88t-65 -274zM440 238q63 -66 176 -66q264 0 261 363q0 115 -29 200z" />
<glyph unicode="&#xf9;" horiz-adv-x="1271" d="M135 508v561h283v-580q0 -66 8.5 -114t28.5 -87t58 -59t93 -20q44 0 83.5 15t75 47.5t56.5 92t21 140.5v565h282v-1069h-282v147q-11 -22 -35 -48t-63 -55.5t-99.5 -49t-130.5 -19.5q-89 0 -156.5 28.5t-109 76t-67.5 117.5t-36 144.5t-10 166.5zM365 1597h268l162 -344 h-185z" />
<glyph unicode="&#xfa;" horiz-adv-x="1271" d="M135 508v561h283v-580q0 -66 8.5 -114t28.5 -87t58 -59t93 -20q44 0 83.5 15t75 47.5t56.5 92t21 140.5v565h282v-1069h-282v147q-11 -22 -35 -48t-63 -55.5t-99.5 -49t-130.5 -19.5q-89 0 -156.5 28.5t-109 76t-67.5 117.5t-36 144.5t-10 166.5zM473 1253l162 344h268 l-246 -344h-184z" />
<glyph unicode="&#xfb;" horiz-adv-x="1271" d="M135 508v561h283v-580q0 -66 8.5 -114t28.5 -87t58 -59t93 -20q44 0 83.5 15t75 47.5t56.5 92t21 140.5v565h282v-1069h-282v147q-11 -22 -35 -48t-63 -55.5t-99.5 -49t-130.5 -19.5q-89 0 -156.5 28.5t-109 76t-67.5 117.5t-36 144.5t-10 166.5zM276 1223l248 301h211 l248 -301h-217l-135 170l-135 -170h-220z" />
<glyph unicode="&#xfc;" horiz-adv-x="1271" d="M135 508v561h283v-580q0 -66 8.5 -114t28.5 -87t58 -59t93 -20q44 0 83.5 15t75 47.5t56.5 92t21 140.5v565h282v-1069h-282v147q-11 -22 -35 -48t-63 -55.5t-99.5 -49t-130.5 -19.5q-89 0 -156.5 28.5t-109 76t-67.5 117.5t-36 144.5t-10 166.5zM301 1303v270h227v-270 h-227zM731 1303v270h227v-270h-227z" />
<glyph unicode="&#xfd;" horiz-adv-x="1075" d="M25 1069h290l226 -811l225 811h285l-379 -1081q-7 -21 -21 -67t-24 -76t-29 -75.5t-37.5 -76t-48 -65t-62.5 -55t-79.5 -34.5t-100.5 -14q-55 0 -103.5 4.5t-69.5 8.5l-21 5v236q70 -15 131 -15q38 0 57 1.5t42.5 10t37 25.5t27 47.5t24.5 77.5l15 62zM360 1253l162 344 h269l-246 -344h-185z" />
<glyph unicode="&#xfe;" horiz-adv-x="1306" d="M147 -475v2017h283v-618q40 72 125 121t201 49q210 0 343.5 -159t133.5 -400q0 -242 -133.5 -401t-343.5 -159q-128 0 -211 47.5t-115 120.5v-618h-283zM418 535q0 -91 23.5 -161t63.5 -111.5t88.5 -62t102.5 -20.5q119 0 186.5 88t67.5 267q0 178 -67.5 266t-186.5 88 q-54 0 -102.5 -20.5t-88.5 -61.5t-63.5 -111t-23.5 -161z" />
<glyph unicode="&#xff;" horiz-adv-x="1075" d="M25 1069h290l226 -811l225 811h285l-379 -1081q-7 -21 -21 -67t-24 -76t-29 -75.5t-37.5 -76t-48 -65t-62.5 -55t-79.5 -34.5t-100.5 -14q-55 0 -103.5 4.5t-69.5 8.5l-21 5v236q70 -15 131 -15q38 0 57 1.5t42.5 10t37 25.5t27 47.5t24.5 77.5l15 62zM203 1303v270h227 v-270h-227zM633 1303v270h227v-270h-227z" />
<glyph unicode="&#x2c6;" horiz-adv-x="915" d="M104 1223l248 301h211l248 -301h-217l-135 170l-135 -170h-220z" />
<glyph unicode="&#x2dc;" horiz-adv-x="817" d="M104 1296q1 55 17.5 95.5t41.5 62.5t58 32t66 8.5t65 -11.5l199 -56q67 -21 67 52h95q-1 -55 -16 -95.5t-39.5 -62.5t-57.5 -32t-67 -8.5t-70 11.5l-193 56q-71 21 -71 -52h-95z" />
<glyph unicode="&#x2000;" horiz-adv-x="982" />
<glyph unicode="&#x2001;" horiz-adv-x="1964" />
<glyph unicode="&#x2002;" horiz-adv-x="982" />
<glyph unicode="&#x2003;" horiz-adv-x="1964" />
<glyph unicode="&#x2004;" horiz-adv-x="654" />
<glyph unicode="&#x2005;" horiz-adv-x="491" />
<glyph unicode="&#x2006;" horiz-adv-x="327" />
<glyph unicode="&#x2007;" horiz-adv-x="327" />
<glyph unicode="&#x2008;" horiz-adv-x="245" />
<glyph unicode="&#x2009;" horiz-adv-x="392" />
<glyph unicode="&#x200a;" horiz-adv-x="109" />
<glyph unicode="&#x2010;" horiz-adv-x="761" d="M92 504v258h578v-258h-578z" />
<glyph unicode="&#x2011;" horiz-adv-x="761" d="M92 504v258h578v-258h-578z" />
<glyph unicode="&#x2012;" horiz-adv-x="761" d="M92 504v258h578v-258h-578z" />
<glyph unicode="&#x2013;" horiz-adv-x="1038" d="M92 449v258h854v-258h-854z" />
<glyph unicode="&#x2014;" horiz-adv-x="1548" d="M92 449v258h1364v-258h-1364z" />
<glyph unicode="&#x2018;" horiz-adv-x="546" d="M104 872v258q0 106 25 186t61.5 124t85.5 71t88 35t78 8v-180q-159 0 -159 -164h159v-338h-338z" />
<glyph unicode="&#x2019;" horiz-adv-x="546" d="M104 860v180q160 0 160 164h-160v338h338v-258q0 -106 -25 -186t-61.5 -124t-85.5 -71t-88 -35t-78 -8z" />
<glyph unicode="&#x201c;" horiz-adv-x="1062" d="M104 872v258q0 106 25 186t61.5 124t85.5 71t88 35t78 8v-180q-159 0 -159 -164h159v-338h-338zM621 872v258q0 106 25 186t61 124t85 71t88 35t78 8v-180q-159 0 -159 -164h159v-338h-337z" />
<glyph unicode="&#x201d;" horiz-adv-x="1062" d="M104 860v180q160 0 160 164h-160v338h338v-258q0 -106 -25 -186t-61.5 -124t-85.5 -71t-88 -35t-78 -8zM621 860v180q159 0 159 164h-159v338h337v-258q0 -106 -25 -186t-61 -124t-85 -71t-88 -35t-78 -8z" />
<glyph unicode="&#x201e;" horiz-adv-x="1062" d="M104 0v338h338v-258q0 -106 -25 -186t-61.5 -124t-85.5 -71t-88 -35t-78 -8v180q160 0 160 164h-160zM621 0v338h337v-258q0 -106 -25 -186t-61 -124t-85 -71t-88 -35t-78 -8v180q159 0 159 164h-159z" />
<glyph unicode="&#x2022;" horiz-adv-x="847" d="M92 768q0 136 98 234t234 98t234 -98t98 -234t-98 -234t-234 -98t-234 98t-98 234z" />
<glyph unicode="&#x2026;" horiz-adv-x="1849" d="M123 0v338h338v-338h-338zM756 0v338h338v-338h-338zM1389 0v338h337v-338h-337z" />
<glyph unicode="&#x202f;" horiz-adv-x="392" />
<glyph unicode="&#x2039;" horiz-adv-x="628" d="M104 510v248l420 299v-252l-248 -170l248 -172v-252z" />
<glyph unicode="&#x203a;" horiz-adv-x="628" d="M104 211v252l248 172l-248 170v252l420 -299v-248z" />
<glyph unicode="&#x205f;" horiz-adv-x="491" />
<glyph unicode="&#x20ac;" horiz-adv-x="1460" d="M0 500l43 184h113q-2 16 -2 51q0 38 2 56h-156l43 184h137q18 83 49.5 155.5t82.5 139t116.5 114t157 75.5t200.5 28q117 0 211 -27.5t156.5 -73.5t106 -112t65.5 -138t31 -157h-275q-47 266 -284 266q-262 0 -332 -270h467l-43 -184h-447q-2 -18 -2 -56v-51h430 l-43 -184h-366q33 -150 115 -217.5t215 -67.5q72 0 120 13.5t87.5 48.5t62 99t33.5 163h274q-4 -94 -22 -172.5t-60 -153t-106.5 -125.5t-166 -82t-233.5 -31q-105 0 -194.5 29t-155 77.5t-116.5 116.5t-83 142.5t-51 159.5h-180z" />
<glyph unicode="&#x2122;" horiz-adv-x="1775" d="M104 1395v147h662v-147h-246v-586h-172v586h-244zM852 809v733h242l168 -526l168 526h241v-733h-166v561l-166 -561h-155l-166 561v-561h-166z" />
<glyph unicode="&#x25fc;" horiz-adv-x="1064" d="M0 0v1065h1065v-1065h-1065z" />
</font>
</defs>
</svg>
