<?xml version="1.0" standalone="no"?>
<!DOCTYPE svg PUBLIC "-//W3C//DTD SVG 1.1//EN" "http://www.w3.org/Graphics/SVG/1.1/DTD/svg11.dtd" >
<svg xmlns="http://www.w3.org/2000/svg" xmlns:xlink="http://www.w3.org/1999/xlink" version="1.1">
<metadata></metadata>
<defs>
<font id="standardbold_italic" horiz-adv-x="1673" >
<font-face units-per-em="2048" ascent="1573" descent="-475" />
<missing-glyph horiz-adv-x="522" />
<glyph horiz-adv-x="0" />
<glyph horiz-adv-x="682" />
<glyph unicode=" "  horiz-adv-x="522" />
<glyph unicode="&#x09;" horiz-adv-x="522" />
<glyph unicode="&#xa0;" horiz-adv-x="522" />
<glyph unicode="!" horiz-adv-x="608" d="M135 0l53 338h338l-53 -338h-338zM289 504l94 1038h332l-236 -1038h-190z" />
<glyph unicode="&#x22;" horiz-adv-x="884" d="M276 934l41 608h308l-164 -608h-185zM707 934l41 608h307l-164 -608h-184z" />
<glyph unicode="#" horiz-adv-x="1306" d="M178 463l35 196h233l35 213h-233l35 197h233l82 473h197l-82 -473h260l82 473h196l-82 -473h234l-35 -197h-233l-35 -213h233l-35 -196h-233l-82 -463h-197l82 463h-258l-82 -463h-198l82 463h-234zM643 659h260l35 213h-260z" />
<glyph unicode="$" horiz-adv-x="1339" d="M172 466q1 31 4 64h275q-8 -147 40 -220.5t164 -90.5l72 449q-176 44 -250 81q-160 80 -169 239q-3 43 5 93q9 58 32.5 112t68 106.5t104 92.5t147 66t191.5 29l29 182h153l-30 -190q63 -10 117.5 -31t93 -49t71 -62t51.5 -70t33.5 -73t18.5 -71t6 -64.5t-4 -52.5h-269 q22 201 -155 239l-56 -352q84 -20 139 -38t123.5 -55.5t105 -85.5t56 -126.5t4.5 -179.5q-31 -203 -184.5 -310.5t-388.5 -120.5l-39 -247h-153l38 250q-72 6 -132 23t-103.5 41t-78.5 56.5t-57 66t-37.5 74t-23 76.5t-10.5 77t-2 72zM600 1098q-11 -65 32.5 -102.5 t135.5 -65.5l51 321q-100 -10 -155 -51t-64 -102zM809 217q226 19 252 178q14 93 -36 146t-153 86z" />
<glyph unicode="%" horiz-adv-x="1800" d="M267 1017q-3 61 5 124q17 106 71.5 201.5t145 159t195.5 63.5q80 0 141 -37t92.5 -97t45 -136t-1.5 -154q-13 -79 -48 -154.5t-87 -137t-124.5 -99t-152.5 -37.5q-64 0 -116 24.5t-85.5 66.5t-55.5 97t-25 116zM457 1137q-46 -277 116 -277q161 0 207 277 q43 278 -118 278q-162 0 -205 -278zM469 0l956 1542h162l-956 -1542h-162zM1102 403q13 79 48 154t87 135.5t124.5 97.5t151.5 37q80 0 141 -37t92.5 -97t45 -136t-1.5 -154q-13 -79 -48 -154.5t-87 -137t-124.5 -99t-152.5 -37.5q-105 0 -175 64.5t-94 161t-7 202.5z M1286 399q-46 -276 117 -276q161 0 207 276q43 279 -119 279t-205 -279z" />
<glyph unicode="&#x26;" horiz-adv-x="1439" d="M178 430q13 86 50 159t95 130t116.5 97.5t135.5 82.5l-47 80q-70 114 -69.5 224t56.5 188.5t153 127t213 48.5q83 0 149.5 -23.5t107.5 -60.5t67 -84.5t34 -95.5t2 -93q-10 -74 -41 -135t-80.5 -108t-99.5 -80.5t-119 -69.5l184 -309q82 135 111 291h248 q-13 -96 -74.5 -236t-157.5 -264l179 -299h-285l-72 121q-191 -146 -418 -146q-69 0 -135.5 16t-127.5 51.5t-104.5 87t-64 129.5t-6.5 171zM434 408q-8 -81 48 -137t177 -56q138 0 263 98l-236 398q-113 -62 -177.5 -131.5t-74.5 -171.5zM708.5 1163.5q2.5 -17.5 12.5 -39 t17 -35t25 -42t25 -41.5q101 52 155.5 97t62.5 101q8 50 -28 89.5t-108 39.5q-70 0 -111 -36.5t-50 -98.5q-3 -17 -0.5 -34.5z" />
<glyph unicode="'" horiz-adv-x="454" d="M276 934l41 608h308l-164 -608h-185z" />
<glyph unicode="(" horiz-adv-x="735" d="M215 232.5q-5 146.5 16 302.5q22 145 77.5 300t126 286.5t142.5 238t140 182.5h225q-363 -527 -440 -1007q-76 -475 121 -1010h-226q-43 75 -80.5 181t-67 243t-34.5 283.5z" />
<glyph unicode=")" horiz-adv-x="698" d="M-39 -475q363 526 440 1010q76 475 -120 1007h225q43 -75 80.5 -180t67 -242.5t34.5 -283t-16 -301.5q-22 -145 -77.5 -300.5t-126 -287.5t-143 -239.5t-139.5 -182.5h-225z" />
<glyph unicode="*" horiz-adv-x="1261" d="M238 1036l133 236l327 -176l50 446h253l-94 -448l385 178l60 -236l-412 -118l231 -359l-210 -137l-187 397l-328 -397l-180 143l342 353z" />
<glyph unicode="+" horiz-adv-x="1263" d="M211 674l31 196h450l72 451h197l-72 -451h450l-30 -196h-451l-72 -451h-196l72 451h-451z" />
<glyph unicode="," horiz-adv-x="583" d="M80 -344l29 180q159 0 186 164h-160l53 338h338l-41 -258q-17 -106 -54.5 -186t-81 -124t-96.5 -71t-93.5 -35t-79.5 -8z" />
<glyph unicode="-" horiz-adv-x="798" d="M190 504l41 258h578l-41 -258h-578z" />
<glyph unicode="." horiz-adv-x="608" d="M135 0l53 338h338l-53 -338h-338z" />
<glyph unicode="/" horiz-adv-x="1159" d="M-106 -475l1234 2017h263l-1235 -2017h-262z" />
<glyph unicode="0" horiz-adv-x="1437" d="M220 580.5q-5 96.5 13 193.5q19 118 61 231t110 215t154 179t199.5 122.5t239.5 45.5q100 0 184.5 -32t142.5 -87.5t101.5 -131.5t62 -164.5t24 -184.5t-12.5 -193q-19 -118 -62 -232t-112.5 -216.5t-156 -180.5t-199.5 -124t-236 -46q-101 0 -185.5 32.5t-142.5 89 t-101 133t-61 165.5t-23 185.5zM528 774q-43 -270 16 -414.5t216 -144.5q161 0 281.5 147.5t162.5 411.5q41 270 -17 408.5t-216 138.5q-163 0 -283 -142.5t-160 -404.5z" />
<glyph unicode="1" horiz-adv-x="804" d="M252 1085l41 252q307 0 371 205h233l-246 -1542h-282l178 1114q-115 -39 -295 -29z" />
<glyph unicode="2" horiz-adv-x="1232" d="M133 0l41 258q199 87 344.5 171t256.5 181t175 208t84 241q3 32 4 67.5t-12 71t-34.5 64.5t-64 47t-100.5 18q-135 0 -208 -90t-89 -254h-270q9 81 33 158t71 156t112 137.5t163 95.5t217 37q80 0 147.5 -16t116 -44.5t87 -67t60.5 -84t36 -96.5t13 -103t-7 -103 q-15 -96 -49 -183t-76.5 -153.5t-104 -129.5t-116.5 -107t-131 -90t-130.5 -74t-130.5 -64h639l-39 -252h-1038z" />
<glyph unicode="3" horiz-adv-x="1370" d="M188.5 443.5q0.5 44.5 6.5 91.5h274q-20 -177 48.5 -248.5t238.5 -71.5q143 0 236.5 61.5t113.5 169.5q22 120 -54 177t-257 57h-240l37 221h239q150 5 231.5 59.5t100.5 167.5q15 88 -41 143.5t-188 55.5q-272 0 -320 -258h-270q14 77 45.5 148t85 135.5t124.5 111.5 t170 75t214 28q119 0 212 -33.5t148.5 -90.5t78.5 -132t10 -158q-24 -150 -103.5 -226t-236.5 -114q171 -25 240 -129.5t42 -267.5q-34 -209 -207 -325t-448 -116q-91 0 -167 14.5t-130 40.5t-96 60.5t-67.5 77.5t-42 87t-22.5 94t-5.5 94.5z" />
<glyph unicode="4" horiz-adv-x="1318" d="M135 387l43 272l826 883h292l-143 -909h211l-39 -246h-211l-61 -387h-283l61 387h-696zM410 633h460l95 590z" />
<glyph unicode="5" horiz-adv-x="1339" d="M166 467h280q-3 -76 18.5 -130t61.5 -82t85 -40t100 -12q149 0 240.5 87.5t115.5 241.5q26 156 -36 244t-214 88q-126 0 -221 -55.5t-143 -138.5h-197l137 872h993l-38 -252h-797l-64 -393q56 80 160.5 137.5t261.5 57.5q163 0 276 -72t159 -194t22 -273 q-17 -111 -69.5 -212t-136 -184t-209.5 -132.5t-275 -49.5q-125 0 -220 29t-151.5 76.5t-90.5 113t-44 132.5t-4 141z" />
<glyph unicode="6" horiz-adv-x="1353" d="M213.5 573q2.5 95 19.5 201q19 120 57 231.5t101 214.5t143.5 179.5t191.5 122t239 45.5q110 0 196 -26t140 -69t87 -101.5t44.5 -121.5t5.5 -131h-287q6 98 -46 147.5t-169 49.5q-100 0 -185 -52t-150.5 -166.5t-92.5 -279.5q56 98 162 159.5t250 61.5q233 0 361.5 -144 t92.5 -376q-17 -106 -71 -203t-135.5 -173t-197 -121.5t-245.5 -45.5q-116 0 -206.5 30.5t-148 86.5t-95 129.5t-51 165t-11 186.5zM512 520q-20 -124 41 -214.5t190 -90.5q128 0 222 91t114 214q22 135 -34 219t-199 84q-127 0 -220 -87t-114 -216z" />
<glyph unicode="7" horiz-adv-x="1161" d="M246 1100l71 442h1026l-36 -233q-29 -29 -83 -84q-166 -168 -235 -256q-153 -194 -239 -458q-68 -208 -117 -511h-297q23 145 60.5 279t77.5 235t95.5 200.5t99.5 164.5t105.5 137.5t97.5 109.5t91.5 91.5t72.5 72.5h-538l-31 -190h-221z" />
<glyph unicode="8" horiz-adv-x="1400" d="M178 432q13 83 48 149.5t89 114.5t109.5 81t130.5 65q-107 48 -162.5 128t-38.5 183q10 59 37.5 116t79.5 111.5t121 95.5t169.5 66t217.5 25q84 0 155 -13t122 -36t91.5 -54t63 -68t38 -78t16 -82.5t-4.5 -82.5q-17 -104 -97 -183.5t-204 -127.5q36 -18 64.5 -34.5 t58.5 -39.5t50.5 -46.5t40.5 -55t28 -65.5t12 -77.5t-6 -91.5q-15 -92 -73.5 -175.5t-148.5 -145.5t-213 -99t-257 -37q-171 0 -302 63t-192.5 167.5t-42.5 226.5zM442 465q-19 -114 67 -182t245 -68q160 0 271 68.5t130 181.5q12 74 -29 128t-116 79.5t-174 25.5 t-182.5 -25.5t-141.5 -79.5t-70 -128zM614 1126q-13 -90 57 -142t201 -52q132 0 219.5 52t100.5 142q13 87 -50.5 144t-201.5 57q-139 0 -226 -57.5t-100 -143.5z" />
<glyph unicode="9" horiz-adv-x="1347" d="M209 418h280q-6 -106 48.5 -148.5t173.5 -42.5q161 0 272 124.5t150 373.5q-56 -98 -165 -159.5t-253 -61.5q-114 0 -205.5 37.5t-150 105t-82 164.5t-5.5 213q17 105 71.5 202.5t136.5 173.5t195.5 121.5t239.5 45.5q142 0 244.5 -45t159.5 -119t83.5 -179t26 -216 t-21.5 -240q-16 -100 -45 -193.5t-72.5 -183.5t-104 -164.5t-135 -131.5t-170.5 -88.5t-204 -31.5q-113 0 -200 25.5t-139 67t-83.5 100t-41 120t-3.5 130.5zM556.5 906q8.5 -55 32.5 -96.5t75 -66t124 -24.5q127 0 223 89t117 214q12 78 -6.5 145.5t-76 113.5t-146.5 46 q-69 0 -129.5 -26.5t-102.5 -70t-69.5 -97.5t-36.5 -111q-13 -61 -4.5 -116z" />
<glyph unicode=":" horiz-adv-x="544" d="M135 0l53 338h338l-53 -338h-338zM252 731l53 338h338l-53 -338h-338z" />
<glyph unicode=";" horiz-adv-x="585" d="M82 -344l29 180q159 0 186 164h-160l53 338h338l-41 -258q-17 -106 -54.5 -186t-81 -124t-96.5 -71t-93.5 -35t-79.5 -8zM252 731l53 338h338l-53 -338h-338z" />
<glyph unicode="&#x3c;" horiz-adv-x="1030" d="M186 510l39 248l916 336l-35 -228l-709 -231l635 -234l-37 -227z" />
<glyph unicode="=" horiz-adv-x="972" d="M139 406l31 190h854l-31 -190h-854zM197 762l28 190h854l-28 -190h-854z" />
<glyph unicode="&#x3e;" horiz-adv-x="1030" d="M133 174l37 227l709 234l-635 231l35 228l808 -336l-38 -248z" />
<glyph unicode="?" horiz-adv-x="1284" d="M281 1073q5 35 21.5 79.5t46.5 102.5t80 111.5t114 99.5t157 73.5t201 27.5q115 0 205 -27.5t143 -71.5t85 -100t40.5 -110.5t-0.5 -106.5q-13 -83 -48 -149.5t-81 -110t-98.5 -79.5t-104.5 -66t-96 -62t-75 -76t-40 -98v-6h-294l2 18q13 81 47 144t79.5 102t97.5 70.5 t103 58.5t94.5 56.5t74.5 73t40 99.5q15 90 -43 139.5t-168 49.5q-118 0 -199.5 -71.5t-95.5 -170.5h-288zM436 0l53 338h338l-53 -338h-338z" />
<glyph unicode="@" horiz-adv-x="1781" d="M220 665.5q2 56.5 7 108.5q14 96 58 200.5t124 211t183.5 191t247.5 137.5t305 53q91 0 171.5 -17t144 -47t117 -72t92 -91.5t68.5 -106t47.5 -115t26.5 -118.5t8.5 -116.5t-8.5 -109.5q-14 -82 -45.5 -152.5t-81.5 -126.5t-124 -88t-164 -32q-108 0 -181 55t-67 127 q-45 -83 -132 -132.5t-179 -49.5q-134 0 -201 115t-16 280q55 172 175.5 283.5t262.5 111.5q159 0 201 -116l30 98h172l-151 -453q-14 -47 -10 -79.5t24 -53t43.5 -30t48.5 -9.5q37 0 67 10.5t60.5 36t53.5 77.5t36 128q28 180 -21.5 322.5t-176.5 226.5t-316 84 q-138 0 -262 -49.5t-216 -135t-153.5 -201t-82.5 -247.5t3 -248t87 -203t171.5 -137.5t250.5 -50.5q239 0 430 154l88 -127q-238 -187 -543 -187q-91 0 -171.5 17.5t-143 48t-116.5 73.5t-91.5 93.5t-68.5 107t-47 116t-26.5 119t-8.5 116zM784 585.5q36 -61.5 125 -61.5 q83 0 156.5 60.5t112.5 185.5q40 125 1.5 185.5t-126.5 60.5q-83 0 -155.5 -61.5t-111.5 -184.5q-38 -123 -2 -184.5z" />
<glyph unicode="A" horiz-adv-x="1499" d="M25 0l800 1542h340l310 -1542h-316l-72 393h-557l-196 -393h-309zM655 645h387l-102 569z" />
<glyph unicode="B" horiz-adv-x="1568" d="M172 0l244 1542h692q123 0 221 -25t167.5 -74.5t100.5 -128.5q20 -52 21 -114q0 -32 -6 -67q-18 -108 -109 -200t-217 -110q104 -15 174 -71q70 -54 96 -134q16 -50 17 -106q0 -32 -6 -66q-35 -216 -205 -331t-502 -115h-688zM506 252h434q300 0 332 205q3 19 3 35 q0 74 -54 118q-66 52 -220 52h-430zM612 913h408q262 0 291 189q3 18 3 35q0 67 -45 105q-56 48 -190 48h-407z" />
<glyph unicode="C" horiz-adv-x="1591" d="M221 638q1 68 12 136q17 110 59.5 219t116.5 213.5t169.5 184t228 128t283.5 48.5q124 0 224.5 -28.5t168 -78t111.5 -117.5t62 -146q14 -61 14 -127q0 -19 -1 -38h-289v19q0 133 -81 195q-87 67 -234 67q-97 0 -181 -31t-154.5 -94.5t-121 -168.5t-73.5 -245 q-16 -94 -15 -171q0 -151 60 -241q90 -134 294 -135q83 0 148 14.5t126.5 50.5t105 105t65.5 170h289q-19 -96 -57 -180.5t-103 -161t-151.5 -131.5t-209 -87t-268.5 -32q-93 0 -173.5 19.5t-141.5 55t-109.5 84t-81 107.5t-54.5 123q-23 65 -31 135q-8 63 -7 124v15z" />
<glyph unicode="D" horiz-adv-x="1595" d="M172 0l244 1542h542q133 0 242 -24t184 -65t130 -99.5t86 -125.5q32 -66 46 -144q14 -73 13 -144v-10q-1 -76 -14 -156q-18 -116 -56 -220t-111.5 -208t-173.5 -178.5t-251.5 -121t-337.5 -46.5h-543zM506 252h291q80 0 146 12t134 47t119.5 91.5t92.5 151t61 220.5 q13 80 14 146v12q0 59 -10 105q-10 50 -28.5 90t-47 67.5t-61.5 46.5t-75.5 29.5t-85 15t-93.5 4.5h-291z" />
<glyph unicode="E" horiz-adv-x="1406" d="M172 0l244 1542h1173l-39 -252h-880l-58 -370h799l-39 -252h-801l-65 -416h878l-38 -252h-1174z" />
<glyph unicode="F" horiz-adv-x="1357" d="M172 0l244 1542h1136l-39 -252h-841l-68 -420h750l-39 -252h-750l-98 -618h-295z" />
<glyph unicode="G" horiz-adv-x="1681" d="M221 610q1 82 12 164q20 125 67.5 241t124.5 218t175.5 177.5t229 119t276.5 43.5q132 0 237 -29.5t174.5 -80.5t114.5 -123.5t63 -154.5q15 -70 15 -150v-27h-295q2 22 2 42q0 269 -332 269q-216 0 -365.5 -141.5t-191.5 -403.5q-13 -80 -13 -149q0 -162 71 -259 q102 -139 325 -139q182 0 306 86t167 265h-374l39 245h653l-131 -823h-271l29 180q-191 -205 -493 -205q-104 0 -193.5 24.5t-154.5 67.5t-117.5 102.5t-82.5 130t-49 149.5q-18 75 -18 153v8z" />
<glyph unicode="H" horiz-adv-x="1658" d="M172 0l244 1542h295l-101 -643h750l100 643h295l-244 -1542h-294l102 647h-750l-102 -647h-295z" />
<glyph unicode="I" horiz-adv-x="614" d="M172 0l244 1542h295l-244 -1542h-295z" />
<glyph unicode="J" horiz-adv-x="1236" d="M203 575h276q-7 -59 -10 -101q-2 -28 -2 -56q0 -15 1 -29q1 -43 11 -71.5t29 -51.5t50 -34t75 -11q61 0 104 23t71.5 71.5t45.5 108.5t31 151l153 967h295l-157 -997q-16 -100 -41 -180t-71 -155t-109 -125t-158 -80t-215 -30q-235 0 -330 157q-64 106 -64 271 q0 79 15 172z" />
<glyph unicode="K" horiz-adv-x="1579" d="M172 0l244 1542h295l-109 -684l719 684h367l-711 -661l590 -881h-381l-430 676l-213 -199l-76 -477h-295z" />
<glyph unicode="L" horiz-adv-x="1265" d="M172 0l244 1542h295l-205 -1290h749l-38 -252h-1045z" />
<glyph unicode="M" horiz-adv-x="1896" d="M172 0l244 1542h440l162 -1177l534 1177h441l-244 -1542h-289l199 1260l-555 -1260h-287l-158 1260l-198 -1260h-289z" />
<glyph unicode="N" horiz-adv-x="1693" d="M172 0l244 1542h319l582 -1130l178 1130h295l-244 -1542h-317l-582 1133l-180 -1133h-295z" />
<glyph unicode="O" d="M222 635.5q0 69.5 11 138.5q18 112 61 221.5t117.5 213.5t170 183t227.5 127t281 48q97 0 181.5 -19t149 -54t117 -82.5t88.5 -105.5t60.5 -122t35.5 -133.5t11.5 -138.5t-11.5 -138q-18 -112 -61.5 -222.5t-118.5 -215t-171.5 -184.5t-230 -128.5t-284.5 -48.5 q-96 0 -179 19.5t-146.5 54.5t-115.5 83t-87.5 106.5t-60 123.5t-35 134.5t-10.5 139zM523 523q16 -104 68.5 -170t124 -96t161.5 -30q98 0 184 31t161 94.5t128.5 171t76.5 250.5q13 74 13 137q0 38 -5 71q-12 90 -43 153t-83 103t-113 58.5t-133 18.5q-91 0 -174 -30 t-157 -91.5t-128 -169t-76 -250.5q-12 -83 -12 -153q0 -53 7 -98z" />
<glyph unicode="P" horiz-adv-x="1417" d="M172 0l244 1542h536q306 0 458 -118q122 -94 121 -273q0 -45 -7 -94q-40 -255 -228.5 -373.5t-496.5 -118.5h-242l-90 -565h-295zM596 817h285q160 0 247 58.5t107 179.5q4 27 4 50q0 82 -53 127q-69 58 -230 58h-284z" />
<glyph unicode="Q" d="M222 635.5q0 69.5 11 138.5q18 112 61 221.5t117.5 213.5t170 183t227.5 127t281 48q97 0 181.5 -19t149 -54t117 -82.5t88.5 -105.5t60.5 -122t35.5 -133.5t11 -138.5t-11 -138q-38 -243 -186 -446l160 -131l-183 -197l-163 137q-217 -162 -494 -162q-96 0 -179 19.5 t-146.5 54.5t-115.5 83t-87.5 106.5t-60 123.5t-35 134.5t-10.5 139zM523 523q16 -104 68.5 -170t124 -96t161.5 -30q98 0 184 31t161 94.5t128.5 171t76.5 250.5q13 74 13 137q0 37 -5 71q-12 90 -43 153t-83 103t-113 58.5t-133 18.5q-91 0 -174 -30t-157 -91.5t-128 -169 t-76 -250.5q-12 -83 -12 -153q0 -53 7 -98z" />
<glyph unicode="R" horiz-adv-x="1462" d="M172 0l244 1542h573q153 0 266.5 -25t193.5 -79q81 -54 113 -146q21 -58 20 -129q0 -42 -7 -88q-28 -193 -146 -300t-319 -144l334 -631h-348l-277 608h-256l-96 -608h-295zM602 860h328q177 0 254 49t96 166q4 23 4 44q0 77 -55 119q-70 52 -232 52h-325z" />
<glyph unicode="S" horiz-adv-x="1427" d="M189 487q1 35 4 72h288q-1 -19 -1 -37q0 -146 66 -216q74 -80 234 -79q315 0 344 191q4 21 4 41q0 43 -16 75q-24 48 -71 77t-111 50t-136 38.5t-143.5 36.5t-134 50.5t-108.5 74.5q-44 43 -64 114q-11 41 -12 90q0 35 6 74q12 80 52 152.5t110 136t185 101.5t259 38 q77 0 144.5 -13t117.5 -35t93 -52.5t71 -65t51.5 -72.5t34 -75.5t18.5 -73.5q7 -29 7 -55v-11q-2 -30 -4 -55h-283q2 22 2 42q0 97 -51 153q-62 68 -215 67q-133 0 -205.5 -45t-85.5 -119q-2 -13 -2 -26q-1 -30 13 -54q20 -34 59.5 -54.5t94 -38t117 -31t128 -32.5 t126.5 -42.5t112.5 -61.5t86.5 -89q34 -52 48 -126q6 -35 7 -76q0 -45 -8 -96q-24 -154 -119 -258t-234.5 -150.5t-319.5 -46.5q-90 0 -165.5 14t-130.5 37t-98.5 57t-71.5 70.5t-47.5 81t-29 85t-13.5 86.5q-3 37 -3 67v14z" />
<glyph unicode="T" horiz-adv-x="1384" d="M248 1290l39 252h1298l-39 -252h-502l-204 -1290h-295l205 1290h-502z" />
<glyph unicode="U" horiz-adv-x="1560" d="M233 545l158 997h295l-154 -967q-8 -49 -8 -92q0 -109 52 -171q72 -86 245 -85q170 0 277.5 87t134.5 261l153 967h295l-157 -997q-19 -126 -75.5 -229.5t-147.5 -180t-224 -118.5t-295 -42q-155 0 -271 45t-181 123q-66 79 -91 181q-14 58 -14 121q0 49 8 100z" />
<glyph unicode="V" horiz-adv-x="1486" d="M281 1542h321l209 -1171l567 1171h316l-789 -1542h-303z" />
<glyph unicode="W" horiz-adv-x="2279" d="M281 1542h321l135 -1130l502 1130h287l145 -1130l494 1130h321l-737 -1542h-303l-123 1159l-492 -1159h-303z" />
<glyph unicode="X" horiz-adv-x="1599" d="M37 0l721 817l-410 725h354l254 -516l428 516h355l-639 -725l463 -817h-355l-305 612l-512 -612h-354z" />
<glyph unicode="Y" horiz-adv-x="1525" d="M268 1542h355l268 -670l487 670h355l-738 -928l-98 -614h-295l98 616z" />
<glyph unicode="Z" horiz-adv-x="1337" d="M123 0l39 240l975 1050h-785l39 252h1110l-35 -227l-993 -1063h842l-39 -252h-1153z" />
<glyph unicode="[" horiz-adv-x="724" d="M96 -475l320 2017h516l-31 -196h-246l-258 -1625h246l-31 -196h-516z" />
<glyph unicode="\" horiz-adv-x="1159" d="M256 1542h262l596 -2017h-262z" />
<glyph unicode="]" horiz-adv-x="700" d="M-39 -475l31 196h246l258 1625h-246l31 196h516l-320 -2017h-516z" />
<glyph unicode="^" horiz-adv-x="1091" d="M201 803l471 739h248l237 -739h-227l-166 549l-336 -549h-227z" />
<glyph unicode="_" horiz-adv-x="825" d="M-74 -475l25 160h823l-24 -160h-824z" />
<glyph unicode="`" horiz-adv-x="577" d="M328 1599h268l106 -344h-184z" />
<glyph unicode="a" horiz-adv-x="1140" d="M137 287q9 52 32 96t52.5 76t73 58.5t82.5 44t92 31t91 20.5t90.5 12.5t79 7t66.5 3.5q15 1 21 1l19 108q3 19 3 36q0 50 -27 78q-36 38 -110 38q-77 0 -125.5 -40.5t-60.5 -119.5h-276q8 47 25.5 92t55.5 94.5t90 86t135.5 60.5t186.5 24q89 0 161.5 -21.5t126 -63 t76.5 -109.5q14 -43 14 -93q0 -31 -5 -64l-68 -432q-4 -26 -4 -45q0 -31 10 -44q16 -21 70 -21l53 4l-34 -215q-11 -15 -107 -15q-134 0 -200 66q-58 57 -57 128q0 11 1 21q-14 -33 -41.5 -67.5t-69.5 -69t-104.5 -56.5t-132.5 -22q-105 0 -176 45.5t-97 115.5 q-17 46 -17 96q0 27 5 55zM414 287q-2 -9 -2 -18q0 -33 26 -59q32 -32 88 -32q52 0 106.5 33t99.5 101t59 155l2 12q-348 0 -379 -192z" />
<glyph unicode="b" horiz-adv-x="1302" d="M147 0l250 1573h283l-105 -647q70 80 152.5 124t200.5 44q139 0 236 -73q98 -73 136 -200q23 -77 23 -166q0 -58 -10 -120q-37 -242 -194 -401t-367 -159q-116 0 -193 49t-106 121l-23 -145h-283zM502 535q-8 -52 -8 -97q0 -106 46 -169q64 -89 179 -89q119 0 201 88.5 t110 266.5q10 61 10 111q0 97 -36 155q-54 88 -173 88q-115 0 -207.5 -88.5t-121.5 -265.5z" />
<glyph unicode="c" horiz-adv-x="1200" d="M170 362q-2 28 -2 55q0 57 8 118q19 114 69 214.5t127 177.5t186.5 122t236.5 45q202 0 317 -108.5t129 -283.5h-278q-4 100 -50 147.5t-137 47.5q-129 0 -208 -88t-109 -274q-11 -71 -11 -128q0 -93 30 -147q48 -88 171 -88q210 0 275 229h278q-58 -187 -216 -306.5 t-374 -119.5q-101 0 -182 29.5t-133.5 81t-86.5 123t-40 153.5z" />
<glyph unicode="d" horiz-adv-x="1323" d="M176 535q39 246 191 402.5t372 156.5q119 0 188.5 -44.5t110.5 -123.5l105 647h282l-249 -1573h-283l22 145q-53 -73 -143 -121.5t-209 -48.5q-139 0 -236 73.5t-136 200.5q-24 79 -24 170q0 55 9 116zM461 535q-9 -58 -9 -106q0 -100 38 -160q58 -89 178 -89 q114 0 203.5 88.5t117.5 266.5q7 54 7 98q0 34 -4 64q-10 67 -43 109.5t-77 62.5t-98 20q-119 0 -202 -88t-111 -266z" />
<glyph unicode="e" horiz-adv-x="1214" d="M167 362q-1 16 -1 33q0 67 10 140q19 114 69 214.5t127 177.5t185.5 122t233.5 45q165 0 273 -78t146 -208q23 -77 22 -166q0 -63 -11 -132h-770q-7 -50 -8 -93q1 -97 39 -155q54 -82 169 -82q93 0 152 41.5t96 128.5h279q-148 -375 -590 -375q-102 0 -181.5 29.5 t-128 81t-78.5 123t-33 153.5zM494 688h471q-3 111 -50.5 160t-148.5 49q-195 0 -272 -209z" />
<glyph unicode="f" horiz-adv-x="729" d="M180 860l33 209h160l35 227q5 33 18 68t41.5 76.5t66.5 73.5t98.5 53.5t133.5 21.5q56 0 100 -3t60 -6l16 -3l-37 -229q-31 6 -94 6q-60 0 -90 -26.5t-39 -80.5l-27 -178h201l-33 -209h-200l-138 -860h-282l137 860h-160z" />
<glyph unicode="g" horiz-adv-x="1329" d="M111 -106h276v-7q0 -67 56 -103q59 -38 165 -38q62 0 103 8t82.5 33t68 78t39.5 137l23 141q-34 -40 -63.5 -66.5t-71.5 -52t-96 -37.5t-122 -12q-139 0 -238.5 73t-140.5 201q-25 80 -25 171q0 55 9 115q39 242 197 400.5t368 158.5q116 0 197 -49t109 -121l22 145h283 l-170 -1073q-36 -234 -190 -352.5t-443 -118.5q-104 0 -186 23.5t-132 61t-80.5 86.5t-38.5 99q-5 26 -5 51q0 24 4 48zM459 535q-9 -57 -9 -104q0 -101 40 -162q60 -89 180 -89q54 0 104.5 20.5t96 62t79 111.5t47.5 161q7 53 7 97q0 35 -4 65q-11 67 -44 109.5t-77.5 62.5 t-98.5 20q-120 0 -206.5 -88.5t-114.5 -265.5z" />
<glyph unicode="h" horiz-adv-x="1259" d="M147 0l250 1573h283l-107 -664q17 25 42 51t68 59t105 54t132 21q88 0 152 -28.5t100 -76.5t53 -117q16 -65 16 -137v-8q-1 -76 -16 -166l-88 -561h-283l92 580q8 63 8 114v32q-4 62 -42.5 98t-114.5 36q-43 0 -84.5 -16t-81 -49t-69 -92t-42.5 -138l-90 -565h-283z" />
<glyph unicode="i" horiz-adv-x="589" d="M154 0l170 1069h282l-170 -1069h-282zM350 1278l47 295h295l-47 -295h-295z" />
<glyph unicode="j" horiz-adv-x="589" d="M-127 -465l39 244q39 -6 102 -6q57 0 85 24.5t38 85.5l187 1186h282l-194 -1233q-5 -33 -13.5 -65t-33.5 -79.5t-61 -82t-100 -59.5t-145 -25q-54 0 -100.5 2.5t-66.5 4.5zM352 1278l45 295h295l-45 -295h-295z" />
<glyph unicode="k" horiz-adv-x="1216" d="M147 0l250 1573h283l-133 -842l397 338h361l-463 -385l356 -684h-340l-242 498l-122 -103l-64 -395h-283z" />
<glyph unicode="l" horiz-adv-x="577" d="M147 0l250 1573h283l-250 -1573h-283z" />
<glyph unicode="m" horiz-adv-x="1964" d="M147 0l170 1069h283l-25 -154q16 23 42.5 49.5t69.5 58t106 51.5t133 20q233 0 295 -199q50 63 74 86q121 113 311 113q338 0 339 -363q0 -77 -16 -170l-88 -561h-282l92 580q8 57 8 104q0 22 -2 42q-5 62 -44.5 98t-115.5 36q-225 0 -274 -319v6l-86 -547h-283l92 580 q8 57 8 104q0 22 -2 42q-5 62 -45 98t-116 36q-41 0 -81 -15t-79 -47.5t-68.5 -92.5t-42.5 -140l-90 -565h-283z" />
<glyph unicode="n" horiz-adv-x="1259" d="M147 0l170 1069h283l-25 -154q16 23 42.5 49.5t69.5 58t106 51.5t133 20q315 0 315 -355q0 -80 -16 -178l-88 -561h-283l92 580q8 63 8 114v32q-4 62 -42.5 98t-114.5 36q-46 0 -87.5 -15t-80.5 -47.5t-67.5 -92t-41.5 -140.5l-90 -565h-283z" />
<glyph unicode="o" horiz-adv-x="1251" d="M176 535q19 114 71 214.5t131 177.5t190 122t239 45t225 -45t152.5 -122t75.5 -177q11 -53 11 -110q0 -51 -9 -105q-18 -114 -70 -215t-131.5 -178t-190.5 -122t-239 -45t-225 45t-152 122q-56 78 -76 178q-11 54 -10 111q0 51 8 104zM459 535q-10 -66 -10 -120 q0 -243 206 -243q129 0 213.5 92.5t110.5 270.5q10 65 10 118q0 244 -207 244q-129 0 -211.5 -91t-111.5 -271z" />
<glyph unicode="p" horiz-adv-x="1308" d="M74 -475l243 1544h283l-22 -145q52 73 141.5 121.5t204.5 48.5q139 0 238.5 -73t140.5 -201q25 -79 25 -170q0 -55 -9 -115q-39 -242 -197 -401t-368 -159q-128 0 -203 47.5t-96 120.5l-99 -618h-282zM504 535q-8 -52 -8 -97q0 -106 46 -169q64 -89 179 -89 q119 0 203 88.5t112 266.5q9 59 9 108q0 98 -37 157q-57 89 -177 89q-114 0 -206 -88.5t-121 -265.5z" />
<glyph unicode="q" horiz-adv-x="1368" d="M219 535q39 244 192.5 401.5t366.5 157.5q120 0 198 -48.5t107 -121.5l23 145h283l-244 -1544h-283l99 618q-64 -81 -142.5 -124.5t-204.5 -43.5q-139 0 -238.5 73t-140.5 201q-25 80 -25 171q0 55 9 115zM502 535q-9 -59 -9 -108q0 -99 37 -159q57 -88 177 -88 q54 0 104.5 20.5t96 62t79 111.5t47.5 161q7 53 7 97q0 35 -5 65q-10 67 -43 109.5t-77.5 62.5t-98.5 20q-119 0 -203 -88t-112 -266z" />
<glyph unicode="r" horiz-adv-x="839" d="M147 0l170 1069h283l-35 -211q13 28 49.5 66t90.5 77t130.5 66t153.5 27l-45 -283q-18 1 -35 1q-42 0 -82 -6q-57 -10 -110 -34t-95.5 -60.5t-72.5 -91.5t-41 -122l-78 -498h-283z" />
<glyph unicode="s" horiz-adv-x="1069" d="M139 282q1 28 6 56h279q-7 -30 -0.5 -59.5t21 -53.5t53 -38.5t96.5 -14.5q84 0 128 29.5t52 79.5q2 12 2 24q0 26 -11 47q-16 30 -48.5 47.5t-75.5 30t-91.5 24t-96 25t-89 36.5t-71 55t-41.5 84q-6 26 -6 56t6 64q24 139 142 229.5t292 90.5q102 0 179 -25t118.5 -61.5 t65.5 -83.5q23 -48 29 -87q4 -25 4 -49q0 -13 -1 -26h-282q2 14 2 26q0 45 -25 75q-32 38 -106 38q-54 0 -93.5 -26.5t-46.5 -75.5q-6 -36 10.5 -61.5t48.5 -40t75 -26.5t90.5 -21.5t95 -26t88 -38.5t68.5 -60q30 -39 40 -91q5 -24 4 -54q0 -34 -6 -75 q-26 -145 -155.5 -237.5t-329.5 -92.5q-89 0 -159.5 14.5t-115 37.5t-75.5 56t-45 65t-20 70q-5 32 -5 56v8z" />
<glyph unicode="t" horiz-adv-x="720" d="M180 860l35 209h154l53 338h283l-54 -338h191l-35 -209h-191l-88 -557q-2 -13 -2 -25q0 -30 15 -45q21 -22 77 -22q28 0 54.5 1.5t39.5 3.5l13 1l-37 -231q-69 -11 -190 -11q-82 0 -138 22t-82 52t-36 73q-10 39 -9 67v5q1 29 7 62l94 604h-154z" />
<glyph unicode="u" horiz-adv-x="1271" d="M194 340q4 74 21 168l90 561h283l-92 -580q-9 -64 -9 -116q1 -15 1 -29q4 -62 41 -98.5t110 -36.5q44 0 85.5 15t82 47.5t71.5 92t44 140.5l90 565h282l-170 -1069h-282l22 147q-14 -22 -40.5 -48t-69 -55.5t-105.5 -49t-133 -19.5q-96 0 -162.5 28t-101 74.5 t-48.5 117.5q-11 56 -10 114q-1 16 0 31z" />
<glyph unicode="v" horiz-adv-x="1050" d="M195 1069h278l98 -793l347 793h278l-537 -1069h-268z" />
<glyph unicode="w" horiz-adv-x="1695" d="M195 1069h284l76 -780l356 780h213l107 -780l325 780h285l-518 -1069h-268l-101 678l-313 -678h-268z" />
<glyph unicode="x" horiz-adv-x="1159" d="M25 0l485 557l-274 512h323l137 -319l226 319h317l-424 -512l320 -557h-324l-190 373l-279 -373h-317z" />
<glyph unicode="y" horiz-adv-x="1075" d="M4 -457l39 236q68 -15 129 -15q47 0 70 3t51 18.5t48.5 49t43.5 91.5l25 62l-215 1081h290l99 -811l352 811h285l-549 -1081q-11 -22 -32 -67t-36 -76t-40.5 -76t-49 -75.5t-58.5 -65t-71.5 -55t-85 -34.5t-102.5 -14q-55 0 -103 4.5t-69 8.5z" />
<glyph unicode="z" horiz-adv-x="1003" d="M111 0l32 203l596 669h-473l33 197h770l-33 -203l-596 -669h521l-31 -197h-819z" />
<glyph unicode="{" horiz-adv-x="770" d="M178 430l33 205q74 0 118 38t52 91l76 483q4 24 9 46.5t16.5 56t26.5 61.5t40.5 58t56.5 50.5t76 34t98 13.5l189 -4l-37 -234q-17 4 -80 4q-50 0 -87.5 -41t-43.5 -92l-70 -434q-28 -153 -192 -234q138 -80 119 -233l-66 -408q-8 -51 16 -92t74 -41l80 4l-37 -233 q-86 -4 -188 -4q-53 0 -93.5 13.5t-65 34t-40 50.5t-22 57.5t-7.5 61.5t1 56t6 46l71 457q8 53 -23.5 91t-105.5 38z" />
<glyph unicode="|" horiz-adv-x="538" d="M78 -475l319 2017h250l-319 -2017h-250z" />
<glyph unicode="}" horiz-adv-x="772" d="M-25 -471l37 233q17 -4 80 -4q50 0 86.5 41t44.5 92l66 408q2 19 9 40t25.5 56.5t59 71.5t98.5 65q-49 29 -78.5 65t-36.5 72t-7.5 56.5t3.5 40.5l70 434q7 52 -17 92.5t-73 40.5l-80 -4l37 234q86 4 188 4q53 0 93.5 -13.5t65 -34t40.5 -50.5t22.5 -58t7.5 -61.5t-1 -56 t-6 -46.5l-76 -483q-8 -53 23.5 -91t105.5 -38l-33 -205q-74 0 -118 -38t-52 -91l-72 -457q-6 -36 -14.5 -69t-32 -81.5t-56 -83t-90 -60t-130.5 -25.5z" />
<glyph unicode="~" horiz-adv-x="919" d="M174 522q12 65 39.5 114t63 75t77 38.5t81 10.5t75.5 -15l207 -67q42 -13 75.5 4t34.5 59h117q-11 -66 -37 -114t-60 -74.5t-75.5 -39t-82.5 -10.5t-81 15l-200 68q-44 13 -79 -3.5t-38 -60.5h-117z" />
<glyph unicode="&#xa1;" horiz-adv-x="608" d="M137 0l236 1038h190l-94 -1038h-332zM326 1204l53 338h338l-53 -338h-338z" />
<glyph unicode="&#xa2;" horiz-adv-x="1200" d="M176 535q23 143 92.5 261.5t188 198.5t268.5 95l39 243h154l-39 -246q164 -23 257 -126.5t105 -258.5h-278q-6 152 -115 187l-113 -707q139 42 189 219h278q-51 -166 -183.5 -280.5t-316.5 -138.5l-38 -250h-154l39 248q-144 14 -237.5 93.5t-126 198.5t-9.5 263z M459 535q-48 -312 123 -355l110 707q-92 -25 -149.5 -111t-83.5 -241z" />
<glyph unicode="&#xa3;" horiz-adv-x="1331" d="M135 135q259 203 287 369q6 35 6 90h-229l28 184h135q-1 1 -16.5 26t-18 29.5t-15.5 27.5t-15 32t-10.5 31.5t-9.5 38.5t-3.5 39.5t-0.5 48t6 51.5q8 50 30 99.5t67 104t107.5 95.5t159.5 67.5t215 26.5q97 0 175.5 -17.5t129.5 -44.5t88 -66t56.5 -76t30 -81t12.5 -74.5 t0 -62.5h-277q7 101 -48 145t-173 44q-122 0 -203 -47t-96 -125q-6 -50 -5.5 -79.5t14 -63.5t26 -55t31.5 -54t30 -60h334l-29 -184h-276q0 -28 -6 -62q-26 -180 -203 -309q61 29 121 37t108.5 0.5t97 -20.5t93.5 -22t90 -8.5t95.5 23.5t101.5 72l112 -184 q-67 -76 -140.5 -113t-143.5 -39t-142 10.5t-147 31t-147 28.5t-152.5 -4t-153.5 -60z" />
<glyph unicode="&#xa4;" horiz-adv-x="872" d="M143 442l97 84q-44 93 -27 213q20 118 94 209l-69 84l77 68l68 -80q102 76 233 76q124 0 199 -72l90 76l58 -68l-97 -84q43 -93 23 -209q-17 -118 -92 -211l71 -86l-77 -67l-68 80q-99 -76 -234 -76q-124 0 -198 74l-90 -78zM352 739q-18 -113 30 -170t130 -57 q54 0 103 22.5t89 75.5t52 129q19 113 -28.5 169.5t-131.5 56.5t-154.5 -57t-89.5 -169z" />
<glyph unicode="&#xa5;" horiz-adv-x="1452" d="M211 233l29 179h399l23 135h-402l29 178h311l-344 739h336l260 -635l459 635h336l-588 -739h321l-28 -178h-410l-22 -135h411l-28 -179h-412l-37 -233h-281l37 233h-399z" />
<glyph unicode="&#xa6;" horiz-adv-x="540" d="M76 -500l135 850h250l-135 -850h-250zM264 692l135 850h250l-135 -850h-250z" />
<glyph unicode="&#xa7;" horiz-adv-x="1331" d="M176 535q15 94 84.5 171.5t177.5 118.5q-54 94 -35 213q22 138 145 229t298 91q66 0 121.5 -10t94 -27t70 -40.5t49 -49.5t31 -54t16.5 -55t6 -51.5t-1 -44.5h-283q14 139 -123 139q-48 0 -89 -29.5t-50 -78.5q-7 -42 13 -78t58 -64.5t89 -56t107.5 -56t112.5 -60.5 t104.5 -74.5t83 -93t48.5 -120.5t1 -153q-15 -100 -73.5 -173.5t-154.5 -111.5q20 -77 6 -161q-22 -145 -152.5 -237.5t-332.5 -92.5q-89 0 -159.5 14.5t-114.5 37.5t-75 56t-45 64.5t-19.5 69.5t-4.5 65t6 55h271q-6 -30 -0.5 -59.5t19.5 -53.5t51.5 -38.5t95.5 -14.5 q78 0 126 30.5t56 84.5q7 48 -12 87t-57.5 67t-90 53.5t-108.5 50t-114.5 51t-107 63t-85.5 80.5t-51 107t-3 140zM440 578q-8 -53 30 -96t107.5 -78t145.5 -69t157.5 -84.5t129.5 -107.5q51 29 63 107q10 68 -19.5 123t-91.5 97.5t-128.5 76t-151 78.5t-137.5 86 q-88 -31 -105 -133z" />
<glyph unicode="&#xa8;" horiz-adv-x="804" d="M281 1303l43 270h227l-43 -270h-227zM711 1303l43 270h227l-43 -270h-227z" />
<glyph unicode="&#xa9;" horiz-adv-x="1781" d="M220 665.5q2 56.5 7 108.5q10 67 35 140.5t68 151t98.5 149.5t131 136.5t161.5 112t194 75.5t224 28q102 0 191.5 -21.5t156.5 -59.5t123.5 -89t93 -111t64.5 -126t38 -132.5t14 -131t-8 -122.5q-11 -68 -36.5 -141t-68.5 -151.5t-98.5 -151t-131 -137.5t-161.5 -113.5 t-193.5 -76.5t-223.5 -28q-91 0 -172 17.5t-143.5 48t-117 73.5t-92.5 93.5t-69.5 107t-47.5 116t-27.5 119t-9.5 116zM406 774q-27 -176 26.5 -321t182.5 -231.5t309 -86.5t334 86.5t251 231.5t125 321q27 175 -27 319t-183.5 229t-309.5 85q-135 0 -258 -49.5t-214.5 -135 t-153 -201.5t-82.5 -247zM655 776q9 55 30.5 109.5t59 107t85 92.5t114 64.5t141.5 24.5q79 0 139.5 -24.5t95 -65.5t50.5 -91.5t12 -105.5h-170q4 66 -37.5 102.5t-107.5 36.5q-84 0 -149 -63.5t-84 -186.5q-19 -122 24 -186t129 -66q175 0 199 156h170q-11 -49 -30 -91.5 t-51.5 -82t-75 -67.5t-103 -45t-133.5 -17q-90 0 -157.5 37t-102.5 96t-47 128t-1 138z" />
<glyph unicode="&#xaa;" horiz-adv-x="899" d="M229 985q9 57 38.5 101t73 70t90.5 43t101.5 24t95 10t81.5 4h12l12 80q9 54 -17.5 81t-78.5 27q-117 0 -135 -114h-199q5 33 18.5 65.5t41.5 67.5t66 62t96.5 44t129.5 17q134 0 214 -64t61 -188l-49 -311q-9 -49 3.5 -64.5t51.5 -15.5l37 4l-25 -156q-8 -10 -78 -10 q-163 0 -186 137q-22 -51 -88.5 -94t-159.5 -43q-113 0 -167 65t-40 158zM428 985q-6 -36 17.5 -57t68.5 -21q61 0 116.5 57t69.5 152l2 8q-53 -2 -92.5 -7.5t-81.5 -19.5t-68 -42t-32 -70z" />
<glyph unicode="&#xab;" horiz-adv-x="1148" d="M205 510l39 248l467 299l-39 -252l-275 -170l219 -172l-38 -252zM705 510l38 248l467 299l-39 -252l-274 -170l219 -172l-39 -252z" />
<glyph unicode="&#xac;" horiz-adv-x="1167" d="M184 700l31 197h1020l-92 -584h-178l61 387h-842z" />
<glyph unicode="&#xad;" horiz-adv-x="798" d="M190 504l41 258h578l-41 -258h-578z" />
<glyph unicode="&#xae;" horiz-adv-x="1781" d="M220 665.5q2 56.5 7 108.5q10 67 35 140.5t68 151t98.5 149.5t131 136.5t161.5 112t194 75.5t224 28q102 0 191.5 -21.5t156.5 -59.5t123.5 -89t93 -111t64.5 -126t38 -132.5t14 -131t-8 -122.5q-11 -68 -36.5 -141t-68.5 -151.5t-98.5 -151t-131 -137.5t-161.5 -113.5 t-193.5 -76.5t-223.5 -28q-91 0 -172 17.5t-143.5 48t-117 73.5t-92.5 93.5t-69.5 107t-47.5 116t-27.5 119t-9.5 116zM406 774q-27 -176 26.5 -321t182.5 -231.5t309 -86.5t334 86.5t251 231.5t125 321q27 175 -27 319t-183.5 229t-309.5 85q-135 0 -258 -49.5t-214.5 -135 t-153 -201.5t-82.5 -247zM651 420l117 733h375q85 0 145.5 -20.5t90 -55t39.5 -74t3 -83.5q-12 -76 -72.5 -138.5t-168.5 -85.5l168 -276h-203l-158 266h-115l-43 -266h-178zM895 834h154q101 0 143.5 21t50.5 65t-28.5 65t-137.5 21h-153z" />
<glyph unicode="&#xaf;" horiz-adv-x="749" d="M291 1370l26 172h603l-27 -172h-602z" />
<glyph unicode="&#xb0;" horiz-adv-x="872" d="M268 1229q24 156 140 264.5t282 108.5q112 0 187 -52t103.5 -136t12.5 -185q-26 -156 -140 -263.5t-280 -107.5q-111 0 -187 50.5t-105.5 134.5t-12.5 186zM461 1229q-12 -74 21 -128t122 -54q59 0 103 29.5t65 68.5t29 84q7 46 -2 85t-43.5 68t-93.5 29 q-89 0 -140 -54.5t-61 -127.5z" />
<glyph unicode="&#xb1;" horiz-adv-x="1263" d="M104 0l31 197h1098l-31 -197h-1098zM217 717l33 196h450l64 408h197l-64 -408h451l-33 -196h-451l-61 -398h-197l62 398h-451z" />
<glyph unicode="&#xb2;" horiz-adv-x="724" d="M201 696l24 152q218 96 325 190.5t128 229.5q7 51 -15.5 89t-87.5 38q-132 0 -155 -168h-152q6 56 27.5 108t60 100t102.5 77.5t146 29.5q58 0 102.5 -16.5t70.5 -44t43 -63.5t18.5 -74.5t-2.5 -77.5q-11 -72 -41 -133t-63.5 -101t-88 -79t-91.5 -59.5t-97 -49.5h329 l-22 -148h-561z" />
<glyph unicode="&#xb3;" horiz-adv-x="798" d="M228 924.5q-3 34.5 3 66.5h150q-10 -92 32.5 -127t129.5 -35q72 0 117.5 33.5t54.5 93.5q17 113 -160 113h-129l18 121h129q150 3 166 115q7 37 -20 69.5t-88 32.5q-68 0 -115 -33t-59 -94h-148q11 53 36.5 99.5t67 85t104 61t138.5 22.5q128 0 196 -65t54 -158 q-13 -82 -58 -122t-132 -62q93 -13 132 -68.5t25 -144.5q-17 -110 -116 -173t-242 -63q-65 0 -116 13.5t-81 36t-51.5 52.5t-28 63t-9.5 67.5z" />
<glyph unicode="&#xb4;" horiz-adv-x="577" d="M272 1255l217 344h269l-301 -344h-185z" />
<glyph unicode="&#xb6;" horiz-adv-x="1474" d="M301 1049q14 90 64 178t124.5 158.5t176.5 113.5t211 43h706l-319 -2017h-265l289 1821h-178l-289 -1821h-264l164 1030q-108 0 -196.5 43.5t-141 113.5t-75 158.5t-7.5 178.5z" />
<glyph unicode="&#xb7;" horiz-adv-x="608" d="M195 369l53 338h338l-54 -338h-337z" />
<glyph unicode="&#xb8;" horiz-adv-x="653" d="M6 -422l55 90q90 -55 177 -55q49 0 92 21t49 59q5 35 -11.5 54.5t-48.5 23t-66 -1t-71 -15.5l-67 74l211 256l75 -59l-157 -189q108 40 174 24.5t93.5 -60t18.5 -105.5q-12 -79 -84 -137t-190 -58q-50 0 -94 8t-71.5 19.5t-47.5 23t-29 19.5z" />
<glyph unicode="&#xb9;" horiz-adv-x="456" d="M268 1303l21 133q74 0 120.5 21.5t65.5 84.5h152l-131 -829h-179l97 606q-59 -19 -146 -16z" />
<glyph unicode="&#xba;" horiz-adv-x="929" d="M258 1163q27 170 151.5 287t303.5 117q120 0 201.5 -56t112.5 -147t13 -201q-27 -169 -151 -285t-303 -116q-120 0 -202 56t-113 146t-13 199zM463 1163q-42 -260 145 -260q189 0 228 260q42 262 -146 262q-93 0 -149 -63.5t-78 -198.5z" />
<glyph unicode="&#xbb;" horiz-adv-x="1148" d="M139 211l39 252l277 172l-222 170l39 252l373 -299l-39 -248zM639 211l39 252l276 172l-221 170l39 252l373 -299l-39 -248z" />
<glyph unicode="&#xbc;" horiz-adv-x="1636" d="M299 1303l20 133q48 0 81 6.5t63 31t43 68.5h151l-131 -829h-178l96 606q-58 -19 -145 -16zM326 0l956 1542h162l-957 -1542h-161zM934 197l27 159l444 478h182l-78 -492h107l-23 -145h-106l-31 -197h-178l31 197h-375zM1090 342h241l51 311z" />
<glyph unicode="&#xbd;" horiz-adv-x="1644" d="M299 1303l20 133q48 0 81 6.5t63 31t43 68.5h151l-131 -829h-178l96 606q-58 -19 -145 -16zM326 0l956 1542h162l-957 -1542h-161zM1010 0l24 152q218 96 325 190t128 229q7 51 -15.5 89t-87.5 38q-132 0 -155 -168h-152q5 44 19 86t40.5 84.5t63.5 74t92 51.5t121 20 q58 0 102.5 -16.5t70.5 -44.5t43 -64t18.5 -74.5t-2.5 -77.5q-11 -72 -41 -133t-63.5 -101t-88 -79t-91.5 -59.5t-97 -49.5h329l-22 -147h-561z" />
<glyph unicode="&#xbe;" horiz-adv-x="1851" d="M247 924.5q-3 34.5 3 66.5h149q-10 -92 32 -127t128 -35q72 0 118.5 33.5t55.5 93.5q17 113 -160 113h-129l19 121h129q150 3 166 115q5 37 -21.5 69.5t-87.5 32.5q-68 0 -116 -33t-58 -94h-147q21 112 109.5 190t236.5 78q128 0 196 -65t52 -158q-11 -82 -57 -122 t-134 -62q95 -13 134.5 -68.5t25.5 -144.5q-18 -110 -117 -173t-242 -63q-65 0 -115.5 13.5t-81 36t-52 52.5t-27.5 63t-9 67.5zM541 0l956 1542h162l-957 -1542h-161zM1149 197l27 159l444 478h182l-78 -492h107l-23 -145h-106l-31 -197h-178l31 197h-375zM1305 342h241 l51 311z" />
<glyph unicode="&#xbf;" horiz-adv-x="1284" d="M175.5 309.5q-8.5 54.5 0.5 106.5q13 83 48 149.5t81 110t98.5 79.5t104.5 66t96 62t75 76t40 98v6h295l-2 -19q-13 -81 -47 -144t-79.5 -102t-97.5 -70.5t-103.5 -58.5t-95 -56.5t-74.5 -73t-40 -99.5q-15 -90 43 -139t168 -49q118 0 199.5 71.5t95.5 170.5h289 q-4 -29 -16 -66t-36.5 -85.5t-57.5 -95t-83.5 -92t-110 -79.5t-142 -55t-175.5 -21q-115 0 -205 27.5t-143 71.5t-85 100t-40.5 110.5zM723 1229l53 338h338l-53 -338h-338z" />
<glyph unicode="&#xc0;" horiz-adv-x="1499" d="M25 0l800 1542h340l310 -1542h-316l-72 393h-557l-196 -393h-309zM655 645h387l-102 569zM758 1954h268l107 -344h-185z" />
<glyph unicode="&#xc1;" horiz-adv-x="1499" d="M25 0l800 1542h340l310 -1542h-316l-72 393h-557l-196 -393h-309zM655 645h387l-102 569zM795 1610l217 344h268l-301 -344h-184z" />
<glyph unicode="&#xc2;" horiz-adv-x="1499" d="M25 0l800 1542h340l310 -1542h-316l-72 393h-557l-196 -393h-309zM629 1610l297 301h211l198 -301h-217l-106 170l-164 -170h-219zM655 645h387l-102 569z" />
<glyph unicode="&#xc3;" horiz-adv-x="1499" d="M25 0l800 1542h340l310 -1542h-316l-72 393h-557l-196 -393h-309zM655 645h387l-102 569zM682 1616q10 55 32.5 95.5t51.5 62t63 31.5t66 8.5t63 -11.5l191 -55q64 -21 76 51h94q-10 -55 -31.5 -95t-49.5 -62t-62.5 -32t-68 -8.5t-67.5 11.5l-184 55q-68 21 -80 -51h-94z " />
<glyph unicode="&#xc4;" horiz-adv-x="1499" d="M25 0l800 1542h340l310 -1542h-316l-72 393h-557l-196 -393h-309zM651 1628l43 270h228l-43 -270h-228zM655 645h387l-102 569zM1081 1628l43 270h228l-43 -270h-228z" />
<glyph unicode="&#xc5;" horiz-adv-x="1499" d="M25 0l800 1542h340l310 -1542h-316l-72 393h-557l-196 -393h-309zM655 645h387l-102 569zM838 1774q11 76 73 133t152 57q89 0 130 -56t30 -134q-11 -76 -72 -132.5t-150 -56.5t-132.5 56t-30.5 133zM930 1774q-8 -46 16 -74.5t70 -28.5q43 0 76.5 29t40.5 74 q7 47 -17 75.5t-67 28.5q-46 0 -79 -28.5t-40 -75.5z" />
<glyph unicode="&#xc6;" horiz-adv-x="1970" d="M25 0l800 1542h205l-39 -244l-332 -653h345l102 645h-115l39 252h1122l-38 -252h-715l-58 -370h633l-39 -252h-635l-65 -416h713l-39 -252h-1008l62 393h-431l-198 -393h-309z" />
<glyph unicode="&#xc7;" horiz-adv-x="1591" d="M221 621.5q3 77.5 12 152.5q17 110 59.5 219t116.5 213.5t169.5 184t228 128t283.5 48.5q124 0 224.5 -28.5t168 -78t112 -117.5t62 -146t12.5 -165h-289q6 147 -81 214t-234 67q-97 0 -181 -31t-154.5 -94.5t-121 -168.5t-73.5 -245q-46 -278 44.5 -412.5t294.5 -134.5 q83 0 148 14.5t126.5 50.5t105 105t65.5 170h289q-18 -90 -52 -169t-92 -152.5t-134 -128t-183 -91t-234 -46.5l-118 -144q108 40 174 24.5t93.5 -60t18.5 -105.5q-12 -79 -84 -137t-190 -58q-50 0 -94 8t-71.5 19.5t-47.5 23t-28 19.5l-9 8l55 90q90 -55 176 -55 q49 0 92.5 21t49.5 59q5 35 -11.5 54.5t-48.5 23t-66 -1t-71 -15.5l-67 74l122 147q-101 4 -186.5 32t-145.5 73.5t-107.5 107t-73 131.5t-41.5 147.5t-13 155z" />
<glyph unicode="&#xc8;" horiz-adv-x="1406" d="M172 0l244 1542h1173l-39 -252h-880l-58 -370h799l-39 -252h-801l-65 -416h878l-38 -252h-1174zM801 1954h268l107 -344h-185z" />
<glyph unicode="&#xc9;" horiz-adv-x="1406" d="M172 0l244 1542h1173l-39 -252h-880l-58 -370h799l-39 -252h-801l-65 -416h878l-38 -252h-1174zM807 1610l217 344h268l-301 -344h-184z" />
<glyph unicode="&#xca;" horiz-adv-x="1406" d="M172 0l244 1542h1173l-39 -252h-880l-58 -370h799l-39 -252h-801l-65 -416h878l-38 -252h-1174zM680 1610l297 301h211l198 -301h-217l-106 170l-164 -170h-219z" />
<glyph unicode="&#xcb;" horiz-adv-x="1406" d="M172 0l244 1542h1173l-39 -252h-880l-58 -370h799l-39 -252h-801l-65 -416h878l-38 -252h-1174zM688 1628l43 270h227l-43 -270h-227zM1118 1628l43 270h228l-43 -270h-228z" />
<glyph unicode="&#xcc;" horiz-adv-x="614" d="M172 0l244 1542h295l-244 -1542h-295zM369 1954h268l106 -344h-184z" />
<glyph unicode="&#xcd;" horiz-adv-x="614" d="M172 0l244 1542h295l-244 -1542h-295zM387 1610l217 344h268l-301 -344h-184z" />
<glyph unicode="&#xce;" horiz-adv-x="614" d="M172 0l244 1542h295l-244 -1542h-295zM215 1610l297 301h211l199 -301h-217l-107 170l-164 -170h-219z" />
<glyph unicode="&#xcf;" horiz-adv-x="614" d="M172 0l244 1542h295l-244 -1542h-295zM246 1628l43 270h227l-43 -270h-227zM676 1628l43 270h227l-43 -270h-227z" />
<glyph unicode="&#xd0;" horiz-adv-x="1595" d="M121 651l37 234h153l105 657h542q133 0 242 -24t184 -65t130 -99.5t86 -125t45.5 -144.5t13.5 -153.5t-14 -156.5q-18 -116 -56 -220t-111.5 -208t-173.5 -178.5t-251.5 -121t-337.5 -46.5h-543l102 651h-153zM506 252h291q80 0 146 12t134 47t119.5 91.5t92.5 151 t61 220.5q13 80 14 146.5t-9.5 116.5t-29 90t-47 67.5t-61.5 46.5t-75.5 29.5t-85 15t-93.5 4.5h-291l-66 -405h328l-37 -234h-328z" />
<glyph unicode="&#xd1;" horiz-adv-x="1693" d="M172 0l244 1542h319l582 -1130l178 1130h295l-244 -1542h-317l-582 1133l-180 -1133h-295zM823 1616q10 55 33 95.5t51.5 62t62.5 31.5t66.5 8.5t63.5 -11.5l190 -55q64 -21 76 51h94q-10 -55 -31.5 -95t-49 -62t-62 -32t-68 -8.5t-67.5 11.5l-185 55q-67 21 -79 -51h-95 z" />
<glyph unicode="&#xd2;" d="M222 635.5q0 69.5 11 138.5q18 112 61 221.5t117.5 213.5t170 183t227.5 127t281 48q97 0 181.5 -19t149 -54t117 -82.5t88.5 -105.5t60.5 -122t35.5 -133.5t11 -138.5t-11 -138q-18 -112 -61.5 -222.5t-118.5 -215t-171.5 -184.5t-230 -128.5t-284.5 -48.5 q-96 0 -179 19.5t-146.5 54.5t-115.5 83t-87.5 106.5t-60 123.5t-35 134.5t-10.5 139zM523 523q16 -104 68.5 -170t124 -96t161.5 -30q98 0 184 31t161 94.5t128.5 171t76.5 250.5q20 118 8 208t-43 153t-83 103t-113 58.5t-133 18.5q-91 0 -174 -30t-157 -91.5t-128 -169 t-76 -250.5q-21 -147 -5 -251zM877 1954h268l106 -344h-184z" />
<glyph unicode="&#xd3;" d="M222 635.5q0 69.5 11 138.5q18 112 61 221.5t117.5 213.5t170 183t227.5 127t281 48q97 0 181.5 -19t149 -54t117 -82.5t88.5 -105.5t60.5 -122t35.5 -133.5t11 -138.5t-11 -138q-18 -112 -61.5 -222.5t-118.5 -215t-171.5 -184.5t-230 -128.5t-284.5 -48.5 q-96 0 -179 19.5t-146.5 54.5t-115.5 83t-87.5 106.5t-60 123.5t-35 134.5t-10.5 139zM523 523q16 -104 68.5 -170t124 -96t161.5 -30q98 0 184 31t161 94.5t128.5 171t76.5 250.5q20 118 8 208t-43 153t-83 103t-113 58.5t-133 18.5q-91 0 -174 -30t-157 -91.5t-128 -169 t-76 -250.5q-21 -147 -5 -251zM926 1610l217 344h268l-301 -344h-184z" />
<glyph unicode="&#xd4;" d="M222 635.5q0 69.5 11 138.5q18 112 61 221.5t117.5 213.5t170 183t227.5 127t281 48q97 0 181.5 -19t149 -54t117 -82.5t88.5 -105.5t60.5 -122t35.5 -133.5t11 -138.5t-11 -138q-18 -112 -61.5 -222.5t-118.5 -215t-171.5 -184.5t-230 -128.5t-284.5 -48.5 q-96 0 -179 19.5t-146.5 54.5t-115.5 83t-87.5 106.5t-60 123.5t-35 134.5t-10.5 139zM523 523q16 -104 68.5 -170t124 -96t161.5 -30q98 0 184 31t161 94.5t128.5 171t76.5 250.5q20 118 8 208t-43 153t-83 103t-113 58.5t-133 18.5q-91 0 -174 -30t-157 -91.5t-128 -169 t-76 -250.5q-21 -147 -5 -251zM733 1610l297 301h211l199 -301h-217l-107 170l-164 -170h-219z" />
<glyph unicode="&#xd5;" d="M222 635.5q0 69.5 11 138.5q18 112 61 221.5t117.5 213.5t170 183t227.5 127t281 48q97 0 181.5 -19t149 -54t117 -82.5t88.5 -105.5t60.5 -122t35.5 -133.5t11 -138.5t-11 -138q-18 -112 -61.5 -222.5t-118.5 -215t-171.5 -184.5t-230 -128.5t-284.5 -48.5 q-96 0 -179 19.5t-146.5 54.5t-115.5 83t-87.5 106.5t-60 123.5t-35 134.5t-10.5 139zM523 523q16 -104 68.5 -170t124 -96t161.5 -30q98 0 184 31t161 94.5t128.5 171t76.5 250.5q20 118 8 208t-43 153t-83 103t-113 58.5t-133 18.5q-91 0 -174 -30t-157 -91.5t-128 -169 t-76 -250.5q-21 -147 -5 -251zM829 1616q10 55 33 95.5t51.5 62t62.5 31.5t66.5 8.5t63.5 -11.5l190 -55q64 -21 76 51h94q-10 -55 -31.5 -95t-49 -62t-62 -32t-68 -8.5t-67.5 11.5l-184 55q-68 21 -80 -51h-95z" />
<glyph unicode="&#xd6;" d="M222 635.5q0 69.5 11 138.5q18 112 61 221.5t117.5 213.5t170 183t227.5 127t281 48q97 0 181.5 -19t149 -54t117 -82.5t88.5 -105.5t60.5 -122t35.5 -133.5t11 -138.5t-11 -138q-18 -112 -61.5 -222.5t-118.5 -215t-171.5 -184.5t-230 -128.5t-284.5 -48.5 q-96 0 -179 19.5t-146.5 54.5t-115.5 83t-87.5 106.5t-60 123.5t-35 134.5t-10.5 139zM523 523q16 -104 68.5 -170t124 -96t161.5 -30q98 0 184 31t161 94.5t128.5 171t76.5 250.5q20 118 8 208t-43 153t-83 103t-113 58.5t-133 18.5q-91 0 -174 -30t-157 -91.5t-128 -169 t-76 -250.5q-21 -147 -5 -251zM774 1628l43 270h227l-43 -270h-227zM1204 1628l43 270h228l-43 -270h-228z" />
<glyph unicode="&#xd7;" horiz-adv-x="1263" d="M244 453l366 319l-266 320l160 137l268 -318l371 318l114 -137l-368 -320l268 -319l-160 -138l-268 318l-371 -318z" />
<glyph unicode="&#xd8;" d="M154 45l180 184q-74 113 -99 257t-2 288q18 112 61 221.5t117.5 213.5t170 183t227.5 127t281 48q261 0 423 -133l156 157l100 -92l-161 -166q83 -113 110.5 -260.5t3.5 -298.5q-18 -112 -61.5 -222.5t-118.5 -215t-171.5 -184.5t-230 -128.5t-284.5 -48.5 q-268 0 -434 150l-168 -172zM528 774q-32 -195 15 -332l774 791q-98 82 -254 82q-91 0 -174 -30t-157 -91.5t-128 -169t-76 -250.5zM616 324q94 -97 261 -97q98 0 184 31t161 94.5t128.5 171t76.5 250.5q33 216 -28 348z" />
<glyph unicode="&#xd9;" horiz-adv-x="1560" d="M233 545l158 997h295l-154 -967q-28 -177 44.5 -262.5t244.5 -85.5q170 0 277.5 87t134.5 261l153 967h295l-157 -997q-19 -126 -75.5 -229.5t-147.5 -180t-224 -118.5t-295 -42q-155 0 -271 45t-181.5 123t-90.5 180.5t-6 221.5zM848 1954h268l107 -344h-185z" />
<glyph unicode="&#xda;" horiz-adv-x="1560" d="M233 545l158 997h295l-154 -967q-28 -177 44.5 -262.5t244.5 -85.5q170 0 277.5 87t134.5 261l153 967h295l-157 -997q-19 -126 -75.5 -229.5t-147.5 -180t-224 -118.5t-295 -42q-155 0 -271 45t-181.5 123t-90.5 180.5t-6 221.5zM942 1610l217 344h268l-301 -344h-184z " />
<glyph unicode="&#xdb;" horiz-adv-x="1560" d="M233 545l158 997h295l-154 -967q-28 -177 44.5 -262.5t244.5 -85.5q170 0 277.5 87t134.5 261l153 967h295l-157 -997q-19 -126 -75.5 -229.5t-147.5 -180t-224 -118.5t-295 -42q-155 0 -271 45t-181.5 123t-90.5 180.5t-6 221.5zM702 1610l297 301h211l199 -301h-217 l-107 170l-163 -170h-220z" />
<glyph unicode="&#xdc;" horiz-adv-x="1560" d="M233 545l158 997h295l-154 -967q-28 -177 44.5 -262.5t244.5 -85.5q170 0 277.5 87t134.5 261l153 967h295l-157 -997q-19 -126 -75.5 -229.5t-147.5 -180t-224 -118.5t-295 -42q-155 0 -271 45t-181.5 123t-90.5 180.5t-6 221.5zM725 1628l43 270h227l-43 -270h-227z M1155 1628l43 270h227l-43 -270h-227z" />
<glyph unicode="&#xdd;" horiz-adv-x="1525" d="M268 1542h355l272 -670l483 670h355l-738 -928l-98 -614h-295l98 616zM831 1610l218 344h268l-301 -344h-185z" />
<glyph unicode="&#xde;" horiz-adv-x="1488" d="M172 0l244 1542h295l-35 -225h383q163 0 281 -59t173.5 -171.5t32.5 -263.5q-24 -151 -116 -267.5t-230.5 -179.5t-300.5 -63h-383l-49 -313h-295zM557 563h367q129 0 220 64t113 196q20 129 -51 185.5t-205 56.5h-366z" />
<glyph unicode="&#xdf;" horiz-adv-x="1366" d="M154 0l178 1124q16 101 70 185.5t133 140t176.5 86.5t201.5 31q127 0 232 -50.5t162.5 -145t40.5 -210.5q-34 -250 -263 -317q155 -31 228 -141t47 -273q-17 -106 -59.5 -188t-98 -131t-127 -80.5t-139 -43.5t-142 -12t-129 6t-106.5 17l39 240q54 -7 93 -11t89 -4.5 t86 5.5t74.5 20.5t64.5 39t46 63.5t28 91q24 155 -63.5 212.5t-310.5 60.5l34 219q145 0 225.5 47t98.5 158q11 74 -35.5 128t-146.5 54q-118 0 -182.5 -66t-80.5 -172l-169 -1083h-295z" />
<glyph unicode="&#xe0;" horiz-adv-x="1140" d="M137 287q9 52 32 96t52.5 76t73 58.5t82.5 44t92 31t91 20.5t90.5 12.5t79 7t66.5 3.5q15 1 21 1l19 108q12 76 -24 114t-110 38q-77 0 -125.5 -40.5t-60.5 -119.5h-276q8 47 25.5 92t55.5 94.5t90 86t135.5 60.5t186.5 24q89 0 161.5 -21.5t126 -63t76.5 -110t9 -156.5 l-68 -432q-10 -68 6.5 -89t69.5 -21l53 4l-34 -215q-11 -15 -107 -15q-133 0 -199.5 66t-56.5 149q-14 -33 -41.5 -67.5t-69.5 -69t-104.5 -56.5t-132.5 -22q-105 0 -176 45.5t-97 115.5t-12 151zM414 287q-8 -46 24 -77.5t88 -31.5q52 0 106.5 33t99.5 101t59 155l2 12 q-348 0 -379 -192zM528 1597h269l108 -344h-184z" />
<glyph unicode="&#xe1;" horiz-adv-x="1140" d="M137 287q9 52 32 96t52.5 76t73 58.5t82.5 44t92 31t91 20.5t90.5 12.5t79 7t66.5 3.5q15 1 21 1l19 108q12 76 -24 114t-110 38q-77 0 -125.5 -40.5t-60.5 -119.5h-276q8 47 25.5 92t55.5 94.5t90 86t135.5 60.5t186.5 24q89 0 161.5 -21.5t126 -63t76.5 -110t9 -156.5 l-68 -432q-10 -68 6.5 -89t69.5 -21l53 4l-34 -215q-11 -15 -107 -15q-133 0 -199.5 66t-56.5 149q-14 -33 -41.5 -67.5t-69.5 -69t-104.5 -56.5t-132.5 -22q-105 0 -176 45.5t-97 115.5t-12 151zM414 287q-8 -46 24 -77.5t88 -31.5q52 0 106.5 33t99.5 101t59 155l2 12 q-348 0 -379 -192zM592 1253l215 344h268l-299 -344h-184z" />
<glyph unicode="&#xe2;" horiz-adv-x="1140" d="M137 287q9 52 32 96t52.5 76t73 58.5t82.5 44t92 31t91 20.5t90.5 12.5t79 7t66.5 3.5q15 1 21 1l19 108q12 76 -24 114t-110 38q-77 0 -125.5 -40.5t-60.5 -119.5h-276q8 47 25.5 92t55.5 94.5t90 86t135.5 60.5t186.5 24q89 0 161.5 -21.5t126 -63t76.5 -110t9 -156.5 l-68 -432q-10 -68 6.5 -89t69.5 -21l53 4l-34 -215q-11 -15 -107 -15q-133 0 -199.5 66t-56.5 149q-14 -33 -41.5 -67.5t-69.5 -69t-104.5 -56.5t-132.5 -22q-105 0 -176 45.5t-97 115.5t-12 151zM379 1223l297 301h211l198 -301h-217l-106 170l-164 -170h-219zM414 287 q-8 -46 24 -77.5t88 -31.5q52 0 106.5 33t99.5 101t59 155l2 12q-348 0 -379 -192z" />
<glyph unicode="&#xe3;" horiz-adv-x="1140" d="M137 287q9 52 32 96t52.5 76t73 58.5t82.5 44t92 31t91 20.5t90.5 12.5t79 7t66.5 3.5q15 1 21 1l19 108q12 76 -24 114t-110 38q-77 0 -125.5 -40.5t-60.5 -119.5h-276q8 47 25.5 92t55.5 94.5t90 86t135.5 60.5t186.5 24q89 0 161.5 -21.5t126 -63t76.5 -110t9 -156.5 l-68 -432q-10 -68 6.5 -89t69.5 -21l53 4l-34 -215q-11 -15 -107 -15q-133 0 -199.5 66t-56.5 149q-14 -33 -41.5 -67.5t-69.5 -69t-104.5 -56.5t-132.5 -22q-105 0 -176 45.5t-97 115.5t-12 151zM414 287q-8 -46 24 -77.5t88 -31.5q52 0 106.5 33t99.5 101t59 155l2 12 q-348 0 -379 -192zM457 1296q10 55 32.5 95.5t51.5 62.5t63 32t67 8.5t64 -11.5l189 -56q66 -21 75 52h95q-9 -55 -30.5 -95.5t-49.5 -62.5t-62.5 -32t-68.5 -8.5t-68 11.5l-184 56q-68 21 -80 -52h-94z" />
<glyph unicode="&#xe4;" horiz-adv-x="1140" d="M137 287q9 52 32 96t52.5 76t73 58.5t82.5 44t92 31t91 20.5t90.5 12.5t79 7t66.5 3.5q15 1 21 1l19 108q12 76 -24 114t-110 38q-77 0 -125.5 -40.5t-60.5 -119.5h-276q8 47 25.5 92t55.5 94.5t90 86t135.5 60.5t186.5 24q89 0 161.5 -21.5t126 -63t76.5 -110t9 -156.5 l-68 -432q-10 -68 6.5 -89t69.5 -21l53 4l-34 -215q-11 -15 -107 -15q-133 0 -199.5 66t-56.5 149q-14 -33 -41.5 -67.5t-69.5 -69t-104.5 -56.5t-132.5 -22q-105 0 -176 45.5t-97 115.5t-12 151zM414 287q-8 -46 24 -77.5t88 -31.5q52 0 106.5 33t99.5 101t59 155l2 12 q-348 0 -379 -192zM451 1303l43 270h227l-43 -270h-227zM881 1303l43 270h227l-43 -270h-227z" />
<glyph unicode="&#xe5;" horiz-adv-x="1140" d="M137 287q9 52 32 96t52.5 76t73 58.5t82.5 44t92 31t91 20.5t90.5 12.5t79 7t66.5 3.5q15 1 21 1l19 108q12 76 -24 114t-110 38q-77 0 -125.5 -40.5t-60.5 -119.5h-276q8 47 25.5 92t55.5 94.5t90 86t135.5 60.5t186.5 24q89 0 161.5 -21.5t126 -63t76.5 -110t9 -156.5 l-68 -432q-10 -68 6.5 -89t69.5 -21l53 4l-34 -215q-11 -15 -107 -15q-133 0 -199.5 66t-56.5 149q-14 -33 -41.5 -67.5t-69.5 -69t-104.5 -56.5t-132.5 -22q-105 0 -176 45.5t-97 115.5t-12 151zM414 287q-8 -46 24 -77.5t88 -31.5q52 0 106.5 33t99.5 101t59 155l2 12 q-348 0 -379 -192zM569 1395q11 76 73.5 133t152.5 57q89 0 129.5 -56t29.5 -134q-11 -76 -71.5 -132.5t-149.5 -56.5t-133 56t-31 133zM662 1395q-8 -46 16 -74.5t70 -28.5q43 0 76 29t40 74q7 47 -17 75.5t-67 28.5q-46 0 -78.5 -28.5t-39.5 -75.5z" />
<glyph unicode="&#xe6;" horiz-adv-x="1867" d="M137 287q11 70 46 127t80 94.5t110 66t119 43.5t125 25.5t111 13.5t93 5l15 83q12 75 -25.5 113.5t-108.5 38.5q-77 0 -125.5 -40.5t-60.5 -119.5h-276q8 46 26 91.5t55.5 94.5t89.5 86t132 61t178 24q112 0 202 -33.5t140 -99.5q159 133 379 133q101 0 182 -29t134 -81 t86 -125t38.5 -161t-8.5 -188h-772q-21 -165 34 -247.5t169 -82.5q92 0 151 41t96 129h279q-148 -375 -578 -375q-163 0 -265 70.5t-142 194.5q-51 -113 -158 -189t-260 -76q-80 0 -141.5 25.5t-96.5 69t-49 99.5t-4 118zM418 311q-8 -46 23.5 -77t88.5 -31q52 0 106.5 33 t99.5 101t59 155l2 12q-348 0 -379 -193zM1143 688h477q-3 111 -57.5 160t-155.5 49q-197 0 -264 -209z" />
<glyph unicode="&#xe7;" horiz-adv-x="1200" d="M176 535q19 114 69 214.5t127 177.5t186.5 122t236.5 45q202 0 317 -108.5t129 -283.5h-278q-4 100 -50 147.5t-137 47.5q-129 0 -208 -88t-109 -274q-29 -187 18.5 -275t171.5 -88q210 0 275 229h278q-54 -174 -197.5 -291.5t-340.5 -132.5l-119 -141q108 40 174 24.5 t93.5 -60t18.5 -105.5q-12 -79 -84 -137t-190 -58q-50 0 -94 8t-71.5 19.5t-47.5 23t-28 19.5l-9 8l55 90q90 -55 177 -55q49 0 92 21t49 59q5 35 -11.5 54.5t-48.5 23t-66 -1t-71 -15.5l-67 74l125 152q-141 16 -232.5 96.5t-123 198.5t-9.5 260z" />
<glyph unicode="&#xe8;" horiz-adv-x="1214" d="M167 361.5q-3 82.5 9 173.5q19 114 69 214.5t127 177.5t185.5 122t233.5 45q165 0 272.5 -77.5t146 -208t11.5 -298.5h-770q-24 -165 30.5 -247.5t169.5 -82.5q93 0 152 41.5t96 128.5h279q-148 -375 -590 -375q-102 0 -181.5 29.5t-128 81t-78.5 122.5t-33 153.5z M494 688h471q-3 111 -50.5 160t-148.5 49q-195 0 -272 -209zM588 1597h268l109 -344h-185z" />
<glyph unicode="&#xe9;" horiz-adv-x="1214" d="M167 361.5q-3 82.5 9 173.5q19 114 69 214.5t127 177.5t185.5 122t233.5 45q165 0 272.5 -77.5t146 -208t11.5 -298.5h-770q-24 -165 30.5 -247.5t169.5 -82.5q93 0 152 41.5t96 128.5h279q-148 -375 -590 -375q-102 0 -181.5 29.5t-128 81t-78.5 122.5t-33 153.5z M494 688h471q-3 111 -50.5 160t-148.5 49q-195 0 -272 -209zM649 1253l215 344h269l-299 -344h-185z" />
<glyph unicode="&#xea;" horiz-adv-x="1214" d="M167 361.5q-3 82.5 9 173.5q19 114 69 214.5t127 177.5t185.5 122t233.5 45q165 0 272.5 -77.5t146 -208t11.5 -298.5h-770q-24 -165 30.5 -247.5t169.5 -82.5q93 0 152 41.5t96 128.5h279q-148 -375 -590 -375q-102 0 -181.5 29.5t-128 81t-78.5 122.5t-33 153.5z M459 1223l297 301h211l198 -301h-217l-106 170l-164 -170h-219zM494 688h471q-3 111 -50.5 160t-148.5 49q-195 0 -272 -209z" />
<glyph unicode="&#xeb;" horiz-adv-x="1214" d="M167 361.5q-3 82.5 9 173.5q19 114 69 214.5t127 177.5t185.5 122t233.5 45q165 0 272.5 -77.5t146 -208t11.5 -298.5h-770q-24 -165 30.5 -247.5t169.5 -82.5q93 0 152 41.5t96 128.5h279q-148 -375 -590 -375q-102 0 -181.5 29.5t-128 81t-78.5 122.5t-33 153.5z M494 688h471q-3 111 -50.5 160t-148.5 49q-195 0 -272 -209zM494 1303l43 270h227l-43 -270h-227zM924 1303l43 270h227l-43 -270h-227z" />
<glyph unicode="&#xec;" horiz-adv-x="589" d="M154 0l170 1069h282l-170 -1069h-282zM262 1597h268l107 -344h-184z" />
<glyph unicode="&#xed;" horiz-adv-x="589" d="M154 0l170 1069h282l-170 -1069h-282zM317 1253l218 344h268l-301 -344h-185z" />
<glyph unicode="&#xee;" horiz-adv-x="589" d="M129 1223l295 301h211l201 -301h-218l-108 170l-162 -170h-219zM154 0l170 1069h282l-170 -1069h-282z" />
<glyph unicode="&#xef;" horiz-adv-x="589" d="M154 0l170 1069h282l-170 -1069h-282zM164 1303l43 270h227l-43 -270h-227zM594 1303l43 270h227l-43 -270h-227z" />
<glyph unicode="&#xf0;" horiz-adv-x="1353" d="M197 543q37 235 214.5 393t407.5 158q134 0 222.5 -53.5t119.5 -135.5q33 205 -49 363l-360 -109l-27 148l291 88q-62 60 -132 91.5t-110 31.5v24h291q7 0 26 -8.5t52 -30t65 -49.5l205 62l27 -148l-127 -39q153 -234 98 -573q-123 -781 -741 -781q-123 0 -223 49.5 t-158.5 130t-83.5 182t-8 206.5zM492 545q-13 -81 5 -154.5t75.5 -124.5t144.5 -51q75 0 137 27.5t103 75t66 104.5t36 123q13 68 4 129t-34.5 106.5t-79 72t-128.5 26.5q-72 0 -131.5 -28t-98.5 -76.5t-63.5 -106t-35.5 -123.5z" />
<glyph unicode="&#xf1;" horiz-adv-x="1259" d="M147 0l170 1069h283l-25 -154q16 23 42.5 49.5t69.5 58t106 51.5t133 20q386 0 299 -533l-88 -561h-283l92 580q11 83 7.5 145.5t-42 98.5t-114.5 36q-46 0 -87.5 -15t-80.5 -47.5t-67.5 -92t-41.5 -140.5l-90 -565h-283zM545 1296q10 55 32.5 95.5t51.5 62.5t63 32 t67 8.5t64 -11.5l189 -56q66 -21 75 52h95q-9 -55 -30.5 -95.5t-49.5 -62.5t-62.5 -32t-68.5 -8.5t-68 11.5l-184 56q-68 21 -80 -52h-94z" />
<glyph unicode="&#xf2;" horiz-adv-x="1251" d="M176 535q19 114 71 214.5t131 177.5t190 122t239 45t225 -45t152.5 -122t75.5 -177.5t2 -214.5t-70 -215t-131.5 -178t-190.5 -122t-239 -45t-225 45t-152 122.5t-75.5 178t-2.5 214.5zM459 535q-56 -363 196 -363q129 0 213.5 92.5t110.5 270.5q55 362 -197 362 q-129 0 -211.5 -91t-111.5 -271zM604 1597h268l109 -344h-184z" />
<glyph unicode="&#xf3;" horiz-adv-x="1251" d="M176 535q19 114 71 214.5t131 177.5t190 122t239 45t225 -45t152.5 -122t75.5 -177.5t2 -214.5t-70 -215t-131.5 -178t-190.5 -122t-239 -45t-225 45t-152 122.5t-75.5 178t-2.5 214.5zM459 535q-56 -363 196 -363q129 0 213.5 92.5t110.5 270.5q55 362 -197 362 q-129 0 -211.5 -91t-111.5 -271zM647 1253l215 344h268l-299 -344h-184z" />
<glyph unicode="&#xf4;" horiz-adv-x="1251" d="M176 535q19 114 71 214.5t131 177.5t190 122t239 45t225 -45t152.5 -122t75.5 -177.5t2 -214.5t-70 -215t-131.5 -178t-190.5 -122t-239 -45t-225 45t-152 122.5t-75.5 178t-2.5 214.5zM459 535q-56 -363 196 -363q129 0 213.5 92.5t110.5 270.5q55 362 -197 362 q-129 0 -211.5 -91t-111.5 -271zM459 1223l297 301h211l198 -301h-217l-106 170l-164 -170h-219z" />
<glyph unicode="&#xf5;" horiz-adv-x="1251" d="M176 535q19 114 71 214.5t131 177.5t190 122t239 45t225 -45t152.5 -122t75.5 -177.5t2 -214.5t-70 -215t-131.5 -178t-190.5 -122t-239 -45t-225 45t-152 122.5t-75.5 178t-2.5 214.5zM459 535q-56 -363 196 -363q129 0 213.5 92.5t110.5 270.5q55 362 -197 362 q-129 0 -211.5 -91t-111.5 -271zM512 1296q10 55 33 95.5t51.5 62.5t63 32t67.5 8.5t64 -11.5l188 -56q32 -10 51.5 3.5t24.5 48.5h94q-9 -55 -30.5 -95.5t-49.5 -62.5t-62.5 -32t-68.5 -8.5t-68 11.5l-184 56q-68 21 -80 -52h-94z" />
<glyph unicode="&#xf6;" horiz-adv-x="1251" d="M176 535q19 114 71 214.5t131 177.5t190 122t239 45t225 -45t152.5 -122t75.5 -177.5t2 -214.5t-70 -215t-131.5 -178t-190.5 -122t-239 -45t-225 45t-152 122.5t-75.5 178t-2.5 214.5zM459 535q-56 -363 196 -363q129 0 213.5 92.5t110.5 270.5q55 362 -197 362 q-129 0 -211.5 -91t-111.5 -271zM500 1303l43 270h227l-43 -270h-227zM930 1303l43 270h227l-43 -270h-227z" />
<glyph unicode="&#xf7;" horiz-adv-x="1263" d="M211 674l31 196h1097l-30 -196h-1098zM590 223l43 266h196l-43 -266h-196zM721 1055l43 266h197l-43 -266h-197z" />
<glyph unicode="&#xf8;" horiz-adv-x="1251" d="M66 -23l178 181q-104 153 -68 377q19 114 71 214.5t131 177.5t190 122t239 45q165 0 278 -74l150 151l102 -92l-151 -155q55 -75 75 -175.5t1 -213.5q-18 -114 -70 -215t-131.5 -178t-190.5 -122t-239 -45q-176 0 -293 84l-170 -174zM451 371l471 481q-48 45 -140 45 q-129 0 -211.5 -91t-111.5 -271q-14 -90 -8 -164zM504 229q51 -57 151 -57q129 0 213.5 92.5t110.5 270.5q15 109 6 184z" />
<glyph unicode="&#xf9;" horiz-adv-x="1271" d="M194.5 339.5q3.5 73.5 20.5 168.5l90 561h283l-92 -580q-12 -83 -8.5 -145.5t41 -98.5t110.5 -36q44 0 85.5 15t82 47.5t71.5 92t44 140.5l90 565h282l-170 -1069h-282l22 147q-14 -22 -40.5 -48t-69 -55.5t-105.5 -49t-133 -19.5q-96 0 -162.5 28t-101 74.5t-48 117.5 t-10 144.5zM621 1597h268l108 -344h-184z" />
<glyph unicode="&#xfa;" horiz-adv-x="1271" d="M199 341.5q2 74.5 16 166.5l90 561h283l-92 -580q-12 -83 -8.5 -145.5t41 -98.5t110.5 -36q44 0 85.5 15t82 47.5t71.5 92t44 140.5l90 565h282l-170 -1069h-282l22 147q-14 -22 -41.5 -48t-71 -55.5t-107.5 -49t-134 -19.5q-89 0 -152 28.5t-97 76t-49 117.5t-13 144.5z M672 1253l215 344h268l-299 -344h-184z" />
<glyph unicode="&#xfb;" horiz-adv-x="1271" d="M199 341.5q2 74.5 16 166.5l90 561h283l-92 -580q-12 -83 -8.5 -145.5t41 -98.5t110.5 -36q44 0 85.5 15t82 47.5t71.5 92t44 140.5l90 565h282l-170 -1069h-282l22 147q-14 -22 -41.5 -48t-71 -55.5t-107.5 -49t-134 -19.5q-89 0 -152 28.5t-97 76t-49 117.5t-13 144.5z M469 1223l297 301h211l199 -301h-218l-106 170l-164 -170h-219z" />
<glyph unicode="&#xfc;" horiz-adv-x="1271" d="M194.5 339.5q3.5 73.5 20.5 168.5l90 561h283l-92 -580q-12 -83 -8.5 -145.5t41 -98.5t110.5 -36q44 0 85.5 15t82 47.5t71.5 92t44 140.5l90 565h282l-170 -1069h-282l22 147q-14 -22 -40.5 -48t-69 -55.5t-105.5 -49t-133 -19.5q-96 0 -162.5 28t-101 74.5t-48 117.5 t-10 144.5zM500 1303l43 270h227l-43 -270h-227zM930 1303l43 270h227l-43 -270h-227z" />
<glyph unicode="&#xfd;" horiz-adv-x="1075" d="M4 -457l39 236q68 -15 129 -15q47 0 70 3t51 18.5t48.5 49t43.5 91.5l25 62l-215 1081h290l99 -811l352 811h285l-549 -1081q-11 -22 -32 -67t-36 -76t-40.5 -76t-49 -75.5t-58.5 -65t-71.5 -55t-85 -34.5t-102.5 -14q-55 0 -103 4.5t-69 8.5zM618 1253l216 344h268 l-299 -344h-185z" />
<glyph unicode="&#xfe;" horiz-adv-x="1308" d="M72 -475l319 2017h283l-99 -618q52 72 144.5 121t208.5 49q210 0 319 -159t70 -400q-39 -242 -197 -401t-368 -159q-128 0 -203 47.5t-96 120.5l-99 -618h-282zM500.5 373q11.5 -67 46 -110t79.5 -63t99 -20q118 0 199.5 88t109.5 267q28 178 -25.5 266t-172.5 88 q-115 0 -210 -88.5t-124 -265.5q-13 -95 -1.5 -162z" />
<glyph unicode="&#xff;" horiz-adv-x="1075" d="M4 -457l39 236q68 -15 129 -15q47 0 70 3t51 18.5t48.5 49t43.5 91.5l25 62l-215 1081h290l99 -811l352 811h285l-549 -1081q-11 -22 -32 -67t-36 -76t-40.5 -76t-49 -75.5t-58.5 -65t-71.5 -55t-85 -34.5t-102.5 -14q-55 0 -103 4.5t-69 8.5zM406 1303l43 270h227 l-43 -270h-227zM836 1303l43 270h227l-43 -270h-227z" />
<glyph unicode="&#x2c6;" horiz-adv-x="854" d="M268 1223l295 301h211l201 -301h-217l-109 170l-162 -170h-219z" />
<glyph unicode="&#x2dc;" horiz-adv-x="755" d="M279 1296q10 55 32.5 95.5t51.5 62.5t63 32t66 8.5t63 -11.5l190 -56q36 -10 53 2.5t23 49.5h94q-10 -55 -31.5 -95.5t-49 -62.5t-62 -32t-68 -8.5t-67.5 11.5l-184 56q-38 10 -56 -2.5t-24 -49.5h-94z" />
<glyph unicode="&#x2000;" horiz-adv-x="982" />
<glyph unicode="&#x2001;" horiz-adv-x="1964" />
<glyph unicode="&#x2002;" horiz-adv-x="982" />
<glyph unicode="&#x2003;" horiz-adv-x="1964" />
<glyph unicode="&#x2004;" horiz-adv-x="654" />
<glyph unicode="&#x2005;" horiz-adv-x="491" />
<glyph unicode="&#x2006;" horiz-adv-x="327" />
<glyph unicode="&#x2007;" horiz-adv-x="327" />
<glyph unicode="&#x2008;" horiz-adv-x="245" />
<glyph unicode="&#x2009;" horiz-adv-x="392" />
<glyph unicode="&#x200a;" horiz-adv-x="109" />
<glyph unicode="&#x2010;" horiz-adv-x="798" d="M190 504l41 258h578l-41 -258h-578z" />
<glyph unicode="&#x2011;" horiz-adv-x="798" d="M190 504l41 258h578l-41 -258h-578z" />
<glyph unicode="&#x2012;" horiz-adv-x="798" d="M190 504l41 258h578l-41 -258h-578z" />
<glyph unicode="&#x2013;" horiz-adv-x="1038" d="M164 449l41 258h854l-41 -258h-854z" />
<glyph unicode="&#x2014;" horiz-adv-x="1548" d="M164 449l41 258h1364l-41 -258h-1364z" />
<glyph unicode="&#x2018;" horiz-adv-x="485" d="M211 872l41 258q17 106 54.5 186t81 124t96.5 71t93.5 35t79.5 8l-28 -180q-160 0 -187 -164h160l-53 -338h-338z" />
<glyph unicode="&#x2019;" horiz-adv-x="524" d="M248 860l28 180q160 0 187 164h-160l53 338h338l-41 -258q-17 -106 -54.5 -186t-81 -124t-96.5 -71t-93.5 -35t-79.5 -8z" />
<glyph unicode="&#x201c;" horiz-adv-x="1001" d="M211 872l41 258q17 106 54.5 186t81 124t96.5 71t93.5 35t79.5 8l-28 -180q-160 0 -187 -164h160l-53 -338h-338zM727 872l41 258q17 106 55 186t81 124t96.5 71t94 35t79.5 8l-29 -180q-160 0 -187 -164h160l-53 -338h-338z" />
<glyph unicode="&#x201d;" horiz-adv-x="1040" d="M248 860l28 180q160 0 187 164h-160l53 338h338l-41 -258q-17 -106 -54.5 -186t-81 -124t-96.5 -71t-93.5 -35t-79.5 -8zM764 860l29 180q159 0 186 164h-160l53 338h338l-41 -258q-17 -106 -54.5 -186t-81 -124t-96.5 -71t-93.5 -35t-79.5 -8z" />
<glyph unicode="&#x201e;" horiz-adv-x="1038" d="M55 -344l29 180q159 0 186 164h-159l53 338h338l-41 -258q-17 -106 -55 -186t-81 -124t-96.5 -71t-94 -35t-79.5 -8zM571 -344l29 180q159 0 186 164h-159l53 338h338l-41 -258q-17 -106 -55 -186t-81 -124t-96.5 -71t-94 -35t-79.5 -8z" />
<glyph unicode="&#x2022;" horiz-adv-x="847" d="M213 768q22 140 129 236t254 96q140 0 221.5 -97.5t59.5 -234.5q-22 -141 -128 -236.5t-257 -95.5q-140 0 -220.5 97t-58.5 235z" />
<glyph unicode="&#x2026;" horiz-adv-x="1873" d="M135 0l53 338h338l-53 -338h-338zM768 0l53 338h338l-53 -338h-338zM1401 0l53 338h338l-53 -338h-338z" />
<glyph unicode="&#x202f;" horiz-adv-x="392" />
<glyph unicode="&#x2039;" horiz-adv-x="649" d="M205 510l39 248l467 299l-39 -252l-275 -170l219 -172l-38 -252z" />
<glyph unicode="&#x203a;" horiz-adv-x="649" d="M139 211l39 252l277 172l-222 170l39 252l373 -299l-39 -248z" />
<glyph unicode="&#x205f;" horiz-adv-x="491" />
<glyph unicode="&#x20ac;" horiz-adv-x="1460" d="M84 500l72 184h112q0 3 6 51q1 13 11 56h-156l72 184h137q32 83 74.5 155.5t104.5 139t135 114t169 75.5t205 28q116 0 204.5 -27.5t144 -73.5t89.5 -112t45.5 -138t6.5 -157h-275q-3 143 -64.5 204.5t-179.5 61.5q-262 0 -372 -270h465l-72 -184h-447q-8 -34 -10 -56 q-1 -10 -4 -27t-4 -24h430l-72 -184h-366q7 -150 77.5 -217.5t206.5 -67.5q69 0 119.5 13.5t95.5 48.5t79 99.5t61 162.5h274q-113 -564 -678 -564q-107 0 -193 29t-143.5 77.5t-97.5 116.5t-59.5 142.5t-24.5 159.5h-178z" />
<glyph unicode="&#x2122;" horiz-adv-x="1716" d="M295 1395l24 147h662l-25 -147h-245l-93 -586h-172l93 586h-244zM950 809l117 733h242l84 -526l252 526h241l-117 -733h-165l88 561l-254 -561h-156l-78 561l-88 -561h-166z" />
<glyph unicode="&#x25fc;" horiz-adv-x="1064" d="M0 0v1065h1065v-1065h-1065z" />
</font>
</defs>
</svg>
